<?xml version="1.0" encoding="utf-8"?>
<!-- Generator: Adobe Illustrator 24.1.2, SVG Export Plug-In . SVG Version: 6.00 Build 0)  -->
<svg version="1.1" id="Layer_1" xmlns="http://www.w3.org/2000/svg" xmlns:xlink="http://www.w3.org/1999/xlink" x="0px" y="0px"
	 viewBox="0 0 112 29" style="enable-background:new 0 0 112 29;" xml:space="preserve">
<style type="text/css">
	.st0{fill:#C7C641;}
	.st1{fill:#DAE138;}
	.st2{fill:#262262;}
	.st3{fill:#2B3990;}
	.st4{fill:#231F20;}
</style>
<g>
	<g id="Layer_2_1_">
		<g>
			<g id="Groupe_2_3_">
				<path id="Tracé_9_3_" class="st0" d="M10.3,10.9L2.9,1.7l-2,1.6v0.3l0.9-0.9L10.3,10.9z"/>
				<path id="Tracé_10_3_" class="st0" d="M2.7,13L0.3,9.8l0.5-6.2L0,4.3L0.2,11l2.2,2.2l8-2.2L2.7,13z"/>
				<path id="Tracé_11_3_" class="st1" d="M2.7,13l7.6-2.1L1.8,2.6l-1,1L0.3,9.8L2.7,13z"/>
			</g>
			<path id="Tracé_12_3_" class="st2" d="M10.3,10.9l-9.7,2.7l0,4.7l0.9,0.6L1,14.8L10.3,10.9z"/>
			<path id="Tracé_13_3_" class="st2" d="M3.3,20.1l-1.8-1.1l0,0.5l3,1.4l5.8-9.9L3.3,20.1z"/>
			<path id="Tracé_14_3_" class="st3" d="M10.3,11L1,14.8l0.4,4.1l1.8,1.1L10.3,11z"/>
			<g>
				<path class="st4" d="M21.3,15.2v2H13V5.3h8.1v2h-5.8v2.9h5v1.9h-5v3.1L21.3,15.2L21.3,15.2z"/>
				<path class="st4" d="M22.8,13.6v-2h5.1v2L22.8,13.6L22.8,13.6z"/>
				<path class="st4" d="M33.3,5.3h2.4L40,17.2h-2.4l-1-3h-4.4l-1,3h-2.4L33.3,5.3z M36.1,12.6l-1.6-4.9l-1.6,4.9H36.1z"/>
				<path class="st4" d="M48.3,8.4c-0.1-0.1-0.2-0.2-0.4-0.3c-0.2-0.1-0.5-0.3-0.7-0.4c-0.3-0.1-0.6-0.2-1-0.3
					c-0.3-0.1-0.7-0.1-1-0.1c-0.6,0-1.1,0.1-1.4,0.3c-0.3,0.2-0.5,0.6-0.5,1c0,0.3,0.1,0.6,0.3,0.8c0.2,0.2,0.5,0.3,0.9,0.5
					s0.9,0.3,1.5,0.4c0.8,0.2,1.5,0.4,2,0.7c0.6,0.3,1,0.6,1.3,1.1c0.3,0.4,0.5,1,0.5,1.7c0,0.6-0.1,1.2-0.3,1.6
					c-0.2,0.5-0.6,0.8-1,1.1C48,16.8,47.5,17,47,17.1s-1.1,0.2-1.7,0.2s-1.2-0.1-1.8-0.2c-0.6-0.1-1.2-0.3-1.7-0.5
					c-0.5-0.2-1-0.5-1.5-0.8l1-2c0.1,0.1,0.3,0.2,0.5,0.4c0.3,0.2,0.6,0.3,0.9,0.5c0.4,0.2,0.8,0.3,1.2,0.4c0.4,0.1,0.9,0.2,1.3,0.2
					c0.6,0,1.1-0.1,1.4-0.3c0.3-0.2,0.5-0.5,0.5-0.9c0-0.4-0.1-0.6-0.4-0.8c-0.3-0.2-0.6-0.4-1.1-0.5c-0.5-0.1-1-0.3-1.6-0.5
					c-0.7-0.2-1.4-0.4-1.9-0.7c-0.5-0.3-0.9-0.6-1.1-1C41,10.1,40.9,9.6,40.9,9c0-0.8,0.2-1.5,0.6-2.1c0.4-0.5,0.9-1,1.6-1.2
					c0.7-0.3,1.4-0.4,2.2-0.4c0.6,0,1.1,0.1,1.6,0.2s1,0.3,1.4,0.5s0.8,0.4,1.2,0.6L48.3,8.4z"/>
				<path class="st4" d="M50.7,11.2c0-0.7,0.1-1.4,0.4-2.1c0.3-0.7,0.6-1.3,1.1-1.9s1.1-1,1.8-1.4c0.7-0.3,1.5-0.5,2.5-0.5
					c1.1,0,2,0.2,2.8,0.7s1.4,1.1,1.8,1.9l-1.8,1.2C59.2,8.6,59,8.3,58.6,8c-0.3-0.3-0.7-0.4-1-0.5c-0.4-0.1-0.7-0.2-1.1-0.2
					c-0.6,0-1.1,0.1-1.5,0.3c-0.4,0.2-0.8,0.5-1.1,0.9c-0.3,0.4-0.5,0.8-0.6,1.3c-0.1,0.5-0.2,0.9-0.2,1.4c0,0.5,0.1,1,0.2,1.5
					c0.2,0.5,0.4,0.9,0.7,1.3c0.3,0.4,0.7,0.7,1.1,0.9c0.4,0.2,0.9,0.3,1.4,0.3c0.4,0,0.7-0.1,1.1-0.2s0.7-0.3,1-0.6
					c0.3-0.3,0.6-0.6,0.7-1l1.9,1.1c-0.2,0.6-0.6,1.1-1.1,1.5c-0.5,0.4-1.1,0.7-1.8,0.9c-0.7,0.2-1.3,0.3-2,0.3
					c-0.8,0-1.6-0.2-2.3-0.5c-0.7-0.3-1.3-0.8-1.8-1.4s-0.9-1.2-1.2-2C50.8,12.7,50.7,11.9,50.7,11.2z"/>
				<path class="st4" d="M71.2,15.2v2h-8.3V5.3H71v2h-5.8v2.9h5v1.9h-5v3.1L71.2,15.2L71.2,15.2z"/>
				<path class="st4" d="M75.3,9.6v7.6H73V5.3h1.8l6.2,7.8V5.3h2.3v11.9h-1.9L75.3,9.6z"/>
				<path class="st4" d="M85,11.2c0-0.7,0.1-1.4,0.4-2.1c0.3-0.7,0.6-1.3,1.1-1.9s1.1-1,1.8-1.4s1.5-0.5,2.5-0.5
					c1.1,0,2,0.2,2.8,0.7s1.4,1.1,1.8,1.9l-1.8,1.2C93.6,8.6,93.3,8.3,93,8c-0.3-0.3-0.7-0.4-1-0.5c-0.4-0.1-0.7-0.2-1.1-0.2
					c-0.6,0-1.1,0.1-1.5,0.3c-0.4,0.2-0.8,0.5-1.1,0.9C88,9,87.7,9.4,87.6,9.8c-0.1,0.5-0.2,0.9-0.2,1.4c0,0.5,0.1,1,0.2,1.5
					c0.2,0.5,0.4,0.9,0.7,1.3c0.3,0.4,0.7,0.7,1.1,0.9c0.4,0.2,0.9,0.3,1.4,0.3c0.4,0,0.7-0.1,1.1-0.2s0.7-0.3,1-0.6
					c0.3-0.3,0.6-0.6,0.7-1l1.9,1.1c-0.2,0.6-0.6,1.1-1.1,1.5c-0.5,0.4-1.1,0.7-1.8,0.9c-0.7,0.2-1.3,0.3-2,0.3
					c-0.8,0-1.6-0.2-2.3-0.5c-0.7-0.3-1.3-0.8-1.8-1.4c-0.5-0.6-0.9-1.2-1.2-2C85.2,12.7,85,11.9,85,11.2z"/>
				<path class="st4" d="M97.3,17.2V5.3h2.3v11.9L97.3,17.2L97.3,17.2z"/>
				<path class="st4" d="M105.3,5.3h2.4l4.4,11.9h-2.4l-1-3h-4.4l-1,3h-2.4L105.3,5.3z M108.1,12.6l-1.6-4.9l-1.6,4.9H108.1z"/>
			</g>
		</g>
	</g>
	<g>
		<path class="st3" d="M56.6,21.6c0.7,0.7,1,1.4,1,2.4s-0.3,1.7-1,2.4c-0.7,0.7-1.5,1-2.4,1c-0.9,0-1.7-0.3-2.4-1
			c-0.7-0.7-1-1.4-1-2.3c0-0.9,0.3-1.7,1-2.4c0.7-0.7,1.5-1,2.4-1C55.1,20.6,55.9,20.9,56.6,21.6z M56.1,25.9c0.5-0.5,0.8-1.2,0.8-2
			c0-0.8-0.3-1.4-0.8-2c-0.5-0.5-1.2-0.8-2-0.8c-0.8,0-1.4,0.3-2,0.8c-0.5,0.5-0.8,1.2-0.8,2c0,0.7,0.3,1.4,0.8,1.9
			c0.6,0.5,1.2,0.8,2,0.8C54.9,26.7,55.6,26.5,56.1,25.9z"/>
		<path class="st3" d="M62.7,27.2h-0.6v-2.6c0-0.6-0.2-1-0.5-1.3c-0.3-0.3-0.6-0.4-1-0.4c-0.4,0-0.8,0.1-1,0.4
			c-0.3,0.3-0.4,0.7-0.4,1.3v2.7h-0.6v-4.8h0.6V23h0c0.2-0.2,0.4-0.4,0.6-0.5c0.3-0.1,0.5-0.2,0.8-0.2c0.7,0,1.2,0.2,1.6,0.6
			c0.4,0.4,0.6,1,0.6,1.7V27.2z"/>
		<path class="st3" d="M64.5,27.2h-0.6v-6.5h0.6V27.2z"/>
		<path class="st3" d="M66.2,21.8h-0.6v-1.1h0.6V21.8z M66.2,27.2h-0.6v-4.8h0.6V27.2z"/>
		<path class="st3" d="M71.6,27.2H71v-2.6c0-0.6-0.2-1-0.5-1.3c-0.3-0.3-0.6-0.4-1-0.4c-0.4,0-0.8,0.1-1,0.4
			C68.1,23.5,68,24,68,24.5v2.7h-0.6v-4.8H68V23h0c0.2-0.2,0.4-0.4,0.6-0.5c0.3-0.1,0.5-0.2,0.8-0.2c0.7,0,1.2,0.2,1.6,0.6
			c0.4,0.4,0.6,1,0.6,1.7V27.2z"/>
		<path class="st3" d="M77.5,24.9C77.5,24.9,77.5,24.9,77.5,24.9c0,0.1,0,0.2,0,0.2h-4.4c0,0.5,0.2,0.9,0.6,1.2
			c0.4,0.3,0.8,0.5,1.3,0.5c0.4,0,0.7-0.1,1-0.3c0.3-0.2,0.5-0.5,0.7-0.8h0.6c-0.2,0.5-0.5,0.9-0.9,1.2s-0.9,0.5-1.4,0.5
			c-0.7,0-1.3-0.2-1.8-0.7c-0.5-0.5-0.7-1.1-0.7-1.8c0-0.7,0.2-1.3,0.7-1.8c0.5-0.5,1.1-0.7,1.8-0.7c0.7,0,1.3,0.3,1.8,0.8
			C77.3,23.6,77.5,24.2,77.5,24.9z M76.9,24.5c-0.1-0.5-0.3-0.9-0.6-1.2c-0.3-0.3-0.8-0.5-1.2-0.5c-0.5,0-0.9,0.2-1.2,0.5
			c-0.3,0.3-0.6,0.7-0.6,1.2H76.9z"/>
		<path class="st3" d="M85.6,25.8c-0.5,1-1.3,1.5-2.4,1.5c-0.7,0-1.3-0.2-1.8-0.7c-0.5-0.5-0.8-1.1-0.8-1.8c0-0.7,0.3-1.3,0.8-1.8
			c0.5-0.5,1.1-0.7,1.8-0.7c0.5,0,1,0.1,1.4,0.4c0.4,0.3,0.8,0.7,0.9,1.1H85c-0.2-0.3-0.4-0.6-0.7-0.7c-0.3-0.2-0.6-0.3-1-0.3
			c-0.5,0-1,0.2-1.4,0.6c-0.4,0.4-0.6,0.8-0.6,1.4c0,0.6,0.2,1,0.6,1.4c0.4,0.4,0.9,0.6,1.4,0.6c0.4,0,0.7-0.1,1-0.3
			c0.3-0.2,0.5-0.4,0.7-0.7H85.6z"/>
		<path class="st3" d="M91.4,24.8c0,0.7-0.2,1.3-0.7,1.8c-0.5,0.5-1.1,0.7-1.8,0.7c-0.7,0-1.3-0.2-1.8-0.7c-0.5-0.5-0.7-1.1-0.7-1.7
			c0-0.7,0.2-1.3,0.7-1.8c0.5-0.5,1.1-0.8,1.8-0.8c0.7,0,1.3,0.2,1.8,0.7C91.1,23.5,91.4,24.1,91.4,24.8z M90.8,24.8
			c0-0.5-0.2-1-0.6-1.4c-0.4-0.4-0.8-0.6-1.3-0.6c-0.5,0-1,0.2-1.3,0.6c-0.4,0.4-0.5,0.9-0.5,1.4c0,0.5,0.2,1,0.6,1.4
			c0.4,0.4,0.8,0.6,1.3,0.6c0.5,0,1-0.2,1.4-0.6C90.6,25.8,90.8,25.3,90.8,24.8z"/>
		<path class="st3" d="M96.5,27.2h-0.6v-0.7h0c-0.1,0.3-0.3,0.5-0.6,0.6c-0.3,0.1-0.6,0.2-0.9,0.2c-0.7,0-1.3-0.2-1.6-0.7
			c-0.3-0.4-0.4-0.9-0.4-1.5v-2.6h0.6v2.6c0,1.1,0.5,1.7,1.5,1.7c0.4,0,0.7-0.1,1-0.4c0.2-0.2,0.3-0.4,0.4-0.6
			c0.1-0.2,0.1-0.5,0.1-0.8v-2.5h0.6V27.2z"/>
		<path class="st3" d="M99.6,23c-0.4,0-0.8,0.2-1,0.4c-0.2,0.3-0.4,0.6-0.4,1v2.8h-0.6v-4.8h0.6v0.7h0c0.1-0.3,0.3-0.5,0.5-0.6
			c0.2-0.1,0.5-0.2,0.8-0.2V23z"/>
		<path class="st3" d="M102.9,25.9c0,0.5-0.1,0.8-0.4,1.1c-0.3,0.3-0.6,0.4-1.1,0.4c-0.4,0-0.8-0.1-1.1-0.4
			c-0.3-0.3-0.4-0.6-0.4-1.1v-0.1h0.6c0,0.3,0.1,0.5,0.2,0.7c0.1,0.2,0.4,0.3,0.6,0.3c0.3,0,0.5-0.1,0.7-0.2
			c0.2-0.1,0.2-0.4,0.2-0.6c0-0.2-0.1-0.4-0.2-0.6c-0.2-0.1-0.3-0.3-0.6-0.3c-0.2-0.1-0.4-0.2-0.7-0.3c-0.2-0.1-0.4-0.2-0.6-0.4
			c-0.2-0.2-0.2-0.4-0.2-0.7c0-0.4,0.1-0.7,0.4-1c0.3-0.2,0.6-0.4,1-0.4c0.4,0,0.7,0.1,0.9,0.4c0.3,0.3,0.4,0.6,0.4,0.9h-0.6
			c0-0.2-0.1-0.4-0.2-0.5c-0.1-0.1-0.3-0.2-0.5-0.2c-0.2,0-0.4,0.1-0.5,0.2c-0.1,0.1-0.2,0.3-0.2,0.5c0,0.2,0.1,0.4,0.2,0.5
			c0.2,0.1,0.3,0.2,0.6,0.3c0.2,0.1,0.4,0.2,0.7,0.3c0.2,0.1,0.4,0.2,0.6,0.5C102.8,25.3,102.9,25.5,102.9,25.9z"/>
		<path class="st3" d="M108.4,24.9C108.4,24.9,108.4,24.9,108.4,24.9c0,0.1,0,0.2,0,0.2h-4.4c0,0.5,0.2,0.9,0.6,1.2
			c0.4,0.3,0.8,0.5,1.3,0.5c0.4,0,0.7-0.1,1-0.3c0.3-0.2,0.5-0.5,0.7-0.8h0.6c-0.2,0.5-0.5,0.9-0.9,1.2c-0.4,0.3-0.9,0.5-1.4,0.5
			c-0.7,0-1.3-0.2-1.8-0.7c-0.5-0.5-0.7-1.1-0.7-1.8c0-0.7,0.2-1.3,0.7-1.8c0.5-0.5,1.1-0.7,1.8-0.7c0.7,0,1.3,0.3,1.8,0.8
			C108.2,23.6,108.4,24.2,108.4,24.9z M107.8,24.5c-0.1-0.5-0.3-0.9-0.6-1.2c-0.3-0.3-0.8-0.5-1.2-0.5c-0.5,0-0.9,0.2-1.2,0.5
			c-0.3,0.3-0.6,0.7-0.6,1.2H107.8z"/>
		<path class="st3" d="M112,25.9c0,0.5-0.1,0.8-0.4,1.1c-0.3,0.3-0.6,0.4-1.1,0.4c-0.4,0-0.8-0.1-1.1-0.4c-0.3-0.3-0.4-0.6-0.4-1.1
			v-0.1h0.6c0,0.3,0.1,0.5,0.2,0.7c0.1,0.2,0.4,0.3,0.6,0.3c0.3,0,0.5-0.1,0.7-0.2c0.2-0.1,0.2-0.4,0.2-0.6c0-0.2-0.1-0.4-0.2-0.6
			c-0.2-0.1-0.3-0.3-0.6-0.3c-0.2-0.1-0.4-0.2-0.7-0.3c-0.2-0.1-0.4-0.2-0.6-0.4c-0.2-0.2-0.2-0.4-0.2-0.7c0-0.4,0.1-0.7,0.4-1
			c0.3-0.2,0.6-0.4,1-0.4c0.4,0,0.7,0.1,0.9,0.4c0.3,0.3,0.4,0.6,0.4,0.9h-0.6c0-0.2-0.1-0.4-0.2-0.5c-0.1-0.1-0.3-0.2-0.5-0.2
			c-0.2,0-0.4,0.1-0.5,0.2c-0.1,0.1-0.2,0.3-0.2,0.5c0,0.2,0.1,0.4,0.2,0.5c0.2,0.1,0.3,0.2,0.6,0.3c0.2,0.1,0.4,0.2,0.7,0.3
			c0.2,0.1,0.4,0.2,0.6,0.5C111.9,25.3,112,25.5,112,25.9z"/>
	</g>
</g>
</svg>
