<svg id="Layer_1" data-name="Layer 1" xmlns="http://www.w3.org/2000/svg" viewBox="0 0 122.88 109.57"><defs><style>.cls-1{fill:#a30a1b;fill-rule:evenodd;}</style></defs><path class="cls-1" d="M94.26,44.46A26.88,26.88,0,1,1,67.38,71.34,26.87,26.87,0,0,1,94.26,44.46ZM65.45,19.57l-4.52,4.74-4.52-4.43C49,12.58,43.4,7.08,31.89,6.93L30.46,7a25.73,25.73,0,0,0-16.72,6.6A22.6,22.6,0,0,0,6.63,30.17v1.37c.69,19.27,19.13,36.08,34.42,50,3,2.69,5.78,5.27,8.49,7.88l11.27,10.85,5.91-5.87c.68.8,1.39,1.58,2.13,2.32h0c.82.83,1.69,1.61,2.59,2.36l-10.59,10.5L45,94.22c-2.49-2.39-5.37-5-8.37-7.75C20.37,71.68.81,53.85,0,31.77V30.09A29.13,29.13,0,0,1,9.21,8.73a32.39,32.39,0,0,1,21-8.42H32C46,.49,52.45,6.65,60.8,14.86,67.66,7.54,73.39,1.55,85,.21a33.85,33.85,0,0,1,19,3.45,35.11,35.11,0,0,1,12.51,10.48,31.56,31.56,0,0,1,6.1,15.18,30.94,30.94,0,0,1-2.86,16.81l-.17-.18a36.18,36.18,0,0,0-5.14-4.27A24.3,24.3,0,0,0,116,30.08a25.08,25.08,0,0,0-4.83-12A28.54,28.54,0,0,0,101,9.58,27.27,27.27,0,0,0,85.79,6.82C76.47,7.89,71.5,13.17,65.45,19.57ZM90.29,60a3.92,3.92,0,0,1,.31-1.51v-.06a4,4,0,0,1,.83-1.23A4,4,0,0,1,94.21,56h0a4.32,4.32,0,0,1,1.51.3A4.16,4.16,0,0,1,97,57.2a3.77,3.77,0,0,1,.85,1.28v.07A4.07,4.07,0,0,1,98.22,60v8h7.93a3.91,3.91,0,0,1,1.51.3,4,4,0,0,1,1.29.86,4.09,4.09,0,0,1,.85,1.28v.06a4.09,4.09,0,0,1,.28,1.38V72a4,4,0,0,1-1.16,2.73,3.94,3.94,0,0,1-1.27.85h-.07a4.13,4.13,0,0,1-1.43.28h-8v7.93a3.91,3.91,0,0,1-.3,1.51A4,4,0,0,1,97,86.59l-.08.07a3.94,3.94,0,0,1-1.2.78h-.07a4.13,4.13,0,0,1-1.43.28h0a3.91,3.91,0,0,1-1.51-.3,4,4,0,0,1-1.29-.86,3.64,3.64,0,0,1-.85-1.27,4.06,4.06,0,0,1-.31-1.5V75.9H82.37a3.92,3.92,0,0,1-1.51-.31H80.8a4,4,0,0,1-1.23-.83,3.77,3.77,0,0,1-.85-1.28v-.07A4.3,4.3,0,0,1,78.41,72h0a3.91,3.91,0,0,1,.3-1.51A4,4,0,0,1,82.34,68h8V60Z"/></svg>