<?xml version="1.0" encoding="utf-8"?>
<!-- Generator: Adobe Illustrator 24.1.2, SVG Export Plug-In . SVG Version: 6.00 Build 0)  -->
<svg version="1.1" id="Layer_1" xmlns="http://www.w3.org/2000/svg" xmlns:xlink="http://www.w3.org/1999/xlink" x="0px" y="0px"
	 viewBox="0 0 122.9 109.6" style="enable-background:new 0 0 122.9 109.6;" xml:space="preserve">
<style type="text/css">
	.st0{fill-rule:evenodd;clip-rule:evenodd;fill:#A30A1B;}
</style>
<path class="st0" d="M94.3,44.5c14.8,0,26.9,12,26.9,26.9s-12,26.9-26.9,26.9s-26.9-12-26.9-26.9S79.4,44.5,94.3,44.5L94.3,44.5z
	 M65.4,19.6l-4.5,4.7l-4.5-4.4C49,12.6,43.4,7.1,31.9,6.9L30.5,7c-6.2,0.1-12.1,2.5-16.7,6.6c-4.6,4.3-7.1,10.3-7.1,16.6v1.4
	c0.7,19.3,19.1,36.1,34.4,50c3,2.7,5.8,5.3,8.5,7.9l11.3,10.8l5.9-5.9c0.7,0.8,1.4,1.6,2.1,2.3l0,0c0.8,0.8,1.7,1.6,2.6,2.4
	l-10.6,10.5L45,94.2c-2.5-2.4-5.4-5-8.4-7.8C20.4,71.7,0.8,53.8,0,31.8v-1.7C0,22,3.3,14.3,9.2,8.7c5.8-5.2,13.2-8.2,21-8.4H32
	c14,0.2,20.5,6.3,28.8,14.6C67.7,7.5,73.4,1.5,85,0.2c6.5-0.7,13.1,0.5,19,3.5c4.9,2.5,9.2,6.1,12.5,10.5c3.3,4.4,5.4,9.7,6.1,15.2
	c0.6,5.8-0.4,11.6-2.9,16.8l-0.2-0.2c-1.6-1.6-3.3-3-5.1-4.3c1.5-3.7,2-7.7,1.6-11.6c-0.5-4.4-2.2-8.5-4.8-12
	c-2.7-3.6-6.1-6.5-10.1-8.5c-4.7-2.4-10-3.3-15.3-2.8C76.5,7.9,71.5,13.2,65.4,19.6z M90.3,60c0-0.5,0.1-1,0.3-1.5v-0.1
	c0.2-0.5,0.5-0.9,0.8-1.2c0.7-0.7,1.7-1.2,2.8-1.2l0,0c0.5,0,1,0.1,1.5,0.3c0.5,0.2,0.9,0.5,1.3,0.9c0.4,0.4,0.7,0.8,0.8,1.3v0.1
	c0.2,0.5,0.3,0.9,0.4,1.5v8h7.9c0.5,0,1,0.1,1.5,0.3c0.5,0.2,0.9,0.5,1.3,0.9c0.4,0.4,0.7,0.8,0.8,1.3v0.1c0.2,0.4,0.3,0.9,0.3,1.4
	V72c0,0.5-0.1,1-0.3,1.4c-0.2,0.5-0.5,0.9-0.9,1.3c-0.4,0.4-0.8,0.7-1.3,0.8h-0.1c-0.5,0.2-0.9,0.3-1.4,0.3h-8v7.9
	c0,0.5-0.1,1-0.3,1.5c-0.2,0.5-0.5,0.9-0.9,1.3l-0.1,0.1c-0.3,0.3-0.8,0.6-1.2,0.8h-0.1c-0.5,0.2-0.9,0.3-1.4,0.3l0,0
	c-0.5,0-1-0.1-1.5-0.3c-0.5-0.2-0.9-0.5-1.3-0.9c-0.4-0.4-0.7-0.8-0.8-1.3c-0.2-0.5-0.3-1-0.3-1.5v-7.9h-7.9c-0.5,0-1-0.1-1.5-0.3
	h-0.1c-0.5-0.2-0.9-0.5-1.2-0.8c-0.4-0.4-0.7-0.8-0.8-1.3v-0.1c-0.2-0.4-0.3-0.9-0.3-1.4l0,0c0-0.5,0.1-1,0.3-1.5
	c0.6-1.5,2-2.5,3.6-2.5h8L90.3,60L90.3,60z"/>
</svg>
