<svg id="Layer_1" data-name="Layer 1" xmlns="http://www.w3.org/2000/svg" viewBox="0 0 380 512.05"><defs><style>.cls-1{fill:#a30a1b;}</style></defs><path class="cls-1" d="M224.83,43.51l76.53,80.43-77.81,1.3,1.28-81.73Zm81.3,233.94.14.13c7.89,6.68,8.94,7.84,19.4,8.35,7.74.28,16.17.61,21.76,8.9C352.21,302,352.62,307.5,353,313l.06.61c.36,7,2.52,11.56,6.67,17.18,5.06,6.67,8.09,12.33,9.23,17.52,2.35,10.56-2.66,17.57-10.17,23.92-2,1.68-3.7,3.16-4.24,4.38-1.42,3.3-1.49,6.33-1.49,9.49-.26,16.83-10.41,30.79-29.3,29.52-8-.66-10.38,2.12-16.85,7.21-13.6,11-24.24,10.88-37.8-.07-6.3-5.1-8.64-7.66-16.77-7.21-17.89,1.2-29.09-11.74-29.38-29.51-.17-7.91-.3-9.22-5.86-14-7.54-6.41-12.55-13.16-10.17-23.85,1.14-5.19,4.24-10.85,9.29-17.51,10.61-13.72,3.31-22.67,12.27-35.92l.13-.13c5.53-8.15,13.88-8.42,21.56-8.69,10.23-.34,11.88-1.81,19.47-8.42,13.1-11.41,23.42-11.43,36.52,0Zm64,215.4-20.28-3.64-10.18,18.26a.59.59,0,0,1-.27.33c-4.24,5.26-8.15,5.12-11.52,2.36-3.64-3-6.07-9.3-7.61-13.47l-.61-1.55-21.49-40.57a2.47,2.47,0,0,1,1.08-3.43,1,1,0,0,1,.33-.13A28.4,28.4,0,0,0,307,446.7c2.82-2.1,5.79-4.73,8.82-7.42a2.57,2.57,0,0,1,1.95-.67,49.18,49.18,0,0,0,16.51-2A28.2,28.2,0,0,0,347.77,427a2.51,2.51,0,0,1,3.57-.47,2.68,2.68,0,0,1,.67.88l24.86,48L379,480a.92.92,0,0,1,.14.4c1,3.57,1.21,6.67,0,9-1.57,3.06-5.85,4.48-9,3.44Zm-144-3.64-20.29,3.64c-3,1-7.57-.6-9.09-3.58-1.21-2.29-1-5.39,0-9l2.29-5.06,24.86-48a2.75,2.75,0,0,1,.67-.87,2.51,2.51,0,0,1,3.58.47c7.65,9.81,18.15,11.93,30,11.65a2.53,2.53,0,0,1,1.95.68c4.2,3.73,10.95,10,16.24,11.72a2.5,2.5,0,0,1,1.41,3.57L256.27,495l-.61,1.55c-1.54,4.18-4,10.51-7.61,13.48-3.37,2.69-7.21,2.89-11.52-2.36-3.23-6.11-7-12.38-10.37-18.46ZM288,305.47a44.31,44.31,0,1,0,44.33,44.34A44.15,44.15,0,0,0,288,305.47Zm-220.69,61h97.23V351.85H67.32Zm0-56.1H201v-.21a58.27,58.27,0,0,1,2.57-14.4H67.32Zm0-56.1H263.61a47.57,47.57,0,0,1,11.61-5.46l.09,0v-9.13h-208v14.61ZM67.32,86h68.5V71.36H67.32V86Zm0,56.1h97.23V127.46H67.32Zm0,56.1H275V183.56H67.32Zm275.32-62.66a12.74,12.74,0,0,0-9.28-12.29L220.64,4.69A12.64,12.64,0,0,0,210.81,0H22.9A22.88,22.88,0,0,0,0,22.9v392a22.91,22.91,0,0,0,22.9,22.9H193.67l10.46-20.2.12-.26H20.46v-397H200.54v115a12.85,12.85,0,0,0,12.85,12.85H322.18v114c5.2,4.31,3.18,1.77,3.95,1.73,5.82.29,10.8.48,16.51,2.07V135.51Z"/></svg>