<svg id="Layer_1" data-name="Layer 1" xmlns="http://www.w3.org/2000/svg" viewBox="0 0 122.88 120.54"><defs><style>.cls-1{fill:#a30a1b;fill-rule:evenodd;}</style></defs><path class="cls-1" d="M95.7,65.5A27.18,27.18,0,1,1,68.52,92.68,27.18,27.18,0,0,1,95.7,65.5ZM96,86.85a5.86,5.86,0,1,1-5.86,5.86A5.86,5.86,0,0,1,96,86.85Zm10.29-6.91,2.32,2.32a1.58,1.58,0,0,1,0,2.22l-1.87,1.87a12.67,12.67,0,0,1,1.16,3.09h2.42A1.57,1.57,0,0,1,111.85,91v3.28a1.58,1.58,0,0,1-1.57,1.57h-2.64a12.16,12.16,0,0,1-1.37,3l1.71,1.71a1.58,1.58,0,0,1,0,2.22l-2.32,2.32a1.58,1.58,0,0,1-2.22,0l-1.87-1.87a12.27,12.27,0,0,1-3.09,1.16v2.42a1.58,1.58,0,0,1-1.57,1.57H93.63a1.58,1.58,0,0,1-1.57-1.57v-2.64a12.16,12.16,0,0,1-3-1.37l-1.71,1.71a1.58,1.58,0,0,1-2.22,0l-2.32-2.32a1.58,1.58,0,0,1,0-2.22l1.87-1.87A12.67,12.67,0,0,1,83.52,95H81.1a1.58,1.58,0,0,1-1.57-1.57V90.17A1.58,1.58,0,0,1,81.1,88.6h2.64a12.39,12.39,0,0,1,1.37-3L83.4,83.88a1.58,1.58,0,0,1,0-2.22l2.32-2.32a1.58,1.58,0,0,1,2.22,0l1.87,1.87a12.22,12.22,0,0,1,3.09-1.16V77.63a1.58,1.58,0,0,1,1.57-1.57h3.28a1.58,1.58,0,0,1,1.57,1.57v2.64a12.39,12.39,0,0,1,3,1.37L104,79.93a1.57,1.57,0,0,1,2.21,0ZM17.69,26.67c8.1,2.71,19.38,4.38,31.91,4.38s23.81-1.67,31.91-4.38C88.62,24.3,93,21.42,93,18.61s-4.4-5.69-11.51-8.06c-8.1-2.7-19.38-4.38-31.91-4.38S25.79,7.84,17.69,10.55c-15.09,5-15.51,11,0,16.12ZM6.24,47.86c.56,2.62,4.83,5.26,11.45,7.47,8.1,2.71,19.38,4.38,31.91,4.38S73.41,58,81.51,55.33C88.62,53,93,50.08,93,47.27h0V28a39,39,0,0,1-9.59,4.53c-8.73,2.91-20.71,4.72-33.86,4.72s-25.13-1.8-33.86-4.72A38.86,38.86,0,0,1,6.25,28V47.86ZM63.3,92.54a136.65,136.65,0,0,1-13.7.67c-13.16,0-25.13-1.8-33.86-4.72A38.86,38.86,0,0,1,6.25,84v18.49c.56,2.62,4.83,5.26,11.45,7.47,8.1,2.7,19.38,4.38,31.91,4.38a123.55,123.55,0,0,0,20.78-1.67,32.78,32.78,0,0,0,5.29,5.24,124,124,0,0,1-26.07,2.6c-13.16,0-25.13-1.8-33.86-4.72C11.15,114.27.08,109.23.08,103.19v-2Q0,59.93,0,18.61C0,12.85,6,8,15.73,4.71,24.46,1.8,36.44,0,49.6,0S74.73,1.8,83.46,4.72,98.08,12,99.05,17.09a3,3,0,0,1,.18,1V60.5a31.56,31.56,0,0,0-3.66-.21c-.85,0-1.68,0-2.51.1V56.65a39,39,0,0,1-9.59,4.53c-8.73,2.91-20.71,4.72-33.86,4.72s-25.13-1.8-33.86-4.72a38.86,38.86,0,0,1-9.49-4.47V75.2c.56,2.62,4.83,5.26,11.45,7.47,8.1,2.7,19.38,4.38,31.91,4.38a132.44,132.44,0,0,0,14.31-.76,30.6,30.6,0,0,0-.63,6.25Z"/></svg>