<svg id="Layer_1" data-name="Layer 1" xmlns="http://www.w3.org/2000/svg" viewBox="0 0 122.88 73.27"><defs><style>.cls-1{fill:#a30a1b;fill-rule:evenodd;}</style></defs><path class="cls-1" d="M104.27,58.88l-.54-20L70.88,48.38a41.35,41.35,0,0,1-8.74,1,41.62,41.62,0,0,1-9.06-1L21.7,38.79V59.06c.9,10.53,31.11,13.75,40.38,14.19,7.43.36,36.78-3.52,40.64-9.57a11.11,11.11,0,0,0,1.55-4.8ZM117.58,24.5V48.93h.77a1,1,0,0,1,1,1v6.57a1,1,0,0,1-1,1h-.77v2.3a2.12,2.12,0,0,1,1.73,2.08h0a2.13,2.13,0,0,1-2.12,2.12H113.4a2.13,2.13,0,0,1-2.12-2.12h0A2.12,2.12,0,0,1,113,59.72v-2.3h-.77a1,1,0,0,1-1-1V49.89a1,1,0,0,1,1-1H113v-23L73,38.35a44.84,44.84,0,0,1-21.72,0L7.18,25.18,3.19,24c-5-2-3.73-6.8.9-7.9L54,1.19a25.66,25.66,0,0,1,15.44,0l49,14.72c5.33,1.3,6.38,6.23.18,8.26l-1,.33Z"/></svg>