<svg id="Layer_1" data-name="Layer 1" xmlns="http://www.w3.org/2000/svg" viewBox="0 0 122.65 122.88"><defs><style>.cls-1{fill:#a30a1b;}</style></defs><path class="cls-1" d="M35.84,113.9a23.69,23.69,0,0,0-.66-4.65,30.82,30.82,0,0,0-9.93-15.54l-.55-.46-4.2,4.1A18.83,18.83,0,0,1,27,106.4a10.42,10.42,0,0,1,.38,4.93,6.74,6.74,0,0,1-2.66,4.31,7.46,7.46,0,0,1-1.06.64,14.76,14.76,0,0,0,5.18,1.63,6.54,6.54,0,0,0,4-.84,8.9,8.9,0,0,0,2.93-3.17ZM78.92,71.24a2.5,2.5,0,0,1-1-.87l-.79.78a2.45,2.45,0,0,1,.73.74c4.08,6.44,6.43,13,6.65,19.67S82.85,105,78.37,111.81a2.46,2.46,0,0,1-4.11-2.71c3.89-5.9,5.57-11.69,5.38-17.39s-2.27-11.45-5.89-17.17l-6.27,6.18-.18-.56-.48.47L40.43,115.82a14,14,0,0,1-5,5.46,11.38,11.38,0,0,1-6.95,1.54c-3.91-.32-8.86-2.76-13.5-6.31a1.91,1.91,0,0,1-.42-.33A50.57,50.57,0,0,1,10,112.1a40.35,40.35,0,0,1-8-10.89C.1,97.14-.59,93,.67,89.38A11.88,11.88,0,0,1,5.58,83.3l37-28.15,20-21.39L86.1,1.36a2.5,2.5,0,0,1,1.6-1A22.63,22.63,0,0,1,98,.9a34.76,34.76,0,0,1,15.68,9.88,33.19,33.19,0,0,1,8.53,15.74,19,19,0,0,1-.22,8.72,2.46,2.46,0,0,1-.93,1.35h0L85.7,62.21,84.28,63.6c0,.19,0,.38,0,.57L81.41,67A35.44,35.44,0,0,1,94,77.39,30.63,30.63,0,0,1,99.61,93a2.46,2.46,0,1,1-4.9.44A25.8,25.8,0,0,0,90,80.28a30.91,30.91,0,0,0-11.06-9ZM20.57,90.39a20.49,20.49,0,0,0-10.14-3A12.5,12.5,0,0,0,8,87.62,7,7,0,0,0,5.29,91c-.8,2.31-.25,5.16,1.15,8.12a35.47,35.47,0,0,0,7,9.52,45.93,45.93,0,0,0,3.85,3.45c2.27.38,3.74.16,4.55-.44a2,2,0,0,0,.73-1.24,5.46,5.46,0,0,0-.25-2.59,14.06,14.06,0,0,0-6.89-7.89,2.46,2.46,0,0,1-1.07-3.31,2.39,2.39,0,0,1,.48-.64l5.73-5.59ZM65,75.5C61.1,69.06,54,62.18,47,57.54l-1,1a2.86,2.86,0,0,1-.43.42L14.35,82.81A29.85,29.85,0,0,1,25.87,88L26,88h0c.84.6,1.66,1.25,2.46,1.93a35.72,35.72,0,0,1,11.51,18.1l0,.12L62.89,77.62a2,2,0,0,1,.33-.39L65,75.5Zm-.9-36.21C73,43.7,80.46,50.85,83.17,58l34.3-24.82a14.91,14.91,0,0,0-.07-5.68,28.23,28.23,0,0,0-7.29-13.31A29.67,29.67,0,0,0,96.75,5.65a18.21,18.21,0,0,0-7.25-.57l-23,31.66h0a2.12,2.12,0,0,1-.2.24l-2.16,2.32Z"/></svg>