<svg id="Layer_1" data-name="Layer 1" xmlns="http://www.w3.org/2000/svg" viewBox="0 0 122.88 111.85"><defs><style>.cls-1{fill:#a30a1b;}</style></defs><path class="cls-1" d="M4.06,8.22A4.15,4.15,0,0,1,0,4.06,4.13,4.13,0,0,1,4.06,0h6A19,19,0,0,1,20,2.6c5.44,3.45,6.41,8.38,7.8,13.94h91a4.08,4.08,0,0,1,4.06,4.06,5.36,5.36,0,0,1-.21,1.25L112.06,64.61a4,4,0,0,1-4,3.13H41.51c1.46,5.41,2.92,8.32,4.89,9.67C48.8,79,53,79.08,59.93,79h47.13a4.06,4.06,0,0,1,0,8.12H60c-8.63.1-13.94-.11-18.2-2.91s-6.66-7.91-8.95-17h0L18.94,14.46c0-.1,0-.1-.11-.21a7.25,7.25,0,0,0-3.12-4.68A10.65,10.65,0,0,0,10,8.22Zm80.32,25a2.89,2.89,0,0,1,5.66,0V48.93a2.89,2.89,0,0,1-5.66,0V33.22Zm-16.95,0a2.89,2.89,0,0,1,5.67,0V48.93a2.89,2.89,0,0,1-5.67,0V33.22Zm-16.94,0a2.89,2.89,0,0,1,5.66,0V48.93a2.89,2.89,0,0,1-5.66,0V33.22Zm41.72-8.58H30.07L39.33,59.5H105l8.64-34.86Zm2.68,67.21a10,10,0,1,1-10,10A10,10,0,0,1,94.89,91.85Zm-43.8,0a10,10,0,1,1-10,10A10,10,0,0,1,51.09,91.85Z"/></svg>