<?xml version="1.0" encoding="utf-8"?>
<!-- Generator: Adobe Illustrator 24.1.2, SVG Export Plug-In . SVG Version: 6.00 Build 0)  -->
<svg version="1.1" id="Layer_1" xmlns="http://www.w3.org/2000/svg" xmlns:xlink="http://www.w3.org/1999/xlink" x="0px" y="0px"
	 viewBox="0 0 122.9 111.8" style="enable-background:new 0 0 122.9 111.8;" xml:space="preserve">
<style type="text/css">
	.st0{fill:#A30A1B;}
</style>
<path class="st0" d="M4.1,8.2C1.8,8.2,0,6.3,0,4.1C0,1.8,1.8,0,4.1,0h6C13.5-0.1,17,0.8,20,2.6c5.4,3.5,6.4,8.4,7.8,13.9h91
	c2.2,0,4.1,1.8,4.1,4.1c0,0.4-0.1,0.8-0.2,1.3l-10.6,42.8c-0.4,1.9-2.1,3.2-4,3.1H41.5c1.5,5.4,2.9,8.3,4.9,9.7
	C48.8,79,53,79.1,59.9,79h47.1c2.2,0,4.1,1.8,4.1,4.1c0,2.2-1.8,4.1-4.1,4.1l0,0H60c-8.6,0.1-13.9-0.1-18.2-2.9s-6.7-7.9-9-17l0,0
	L18.9,14.5c0-0.1,0-0.1-0.1-0.2c-0.4-1.9-1.5-3.6-3.1-4.7C14,8.6,12,8.1,10,8.2H4.1z M84.4,33.2c0.3-1.6,1.9-2.6,3.4-2.2
	c1.1,0.2,2,1.1,2.2,2.2v15.7c-0.3,1.6-1.9,2.6-3.4,2.2c-1.1-0.2-2-1.1-2.2-2.2L84.4,33.2L84.4,33.2z M67.4,33.2
	c0.3-1.6,1.8-2.6,3.4-2.3c1.1,0.2,2,1.1,2.3,2.3v15.7c-0.3,1.6-1.8,2.6-3.4,2.3c-1.1-0.2-2-1.1-2.3-2.3V33.2L67.4,33.2z M50.5,33.2
	c0.3-1.6,1.9-2.6,3.4-2.2c1.1,0.2,2,1.1,2.2,2.2v15.7c-0.3,1.6-1.9,2.6-3.4,2.2c-1.1-0.2-2-1.1-2.2-2.2V33.2L50.5,33.2z M92.2,24.6
	H30.1l9.3,34.9H105l8.6-34.9L92.2,24.6z M94.9,91.8c5.5,0,10,4.5,10,10s-4.5,10-10,10s-10-4.5-10-10S89.4,91.8,94.9,91.8z
	 M51.1,91.8c5.5,0,10,4.5,10,10s-4.5,10-10,10s-10-4.5-10-10S45.6,91.8,51.1,91.8z"/>
</svg>
