<svg id="Layer_1" data-name="Layer 1" xmlns="http://www.w3.org/2000/svg" viewBox="0 0 122.87 110.14"><path d="M101.77,11.11A21.12,21.12,0,1,1,86.85,17.3a21.05,21.05,0,0,1,14.92-6.19ZM32.39,30.47a4,4,0,0,0,1.09-.08l-.14-1.08a1.37,1.37,0,0,0,0-.29,1.53,1.53,0,0,0-.13-.57l-.87-6.92A11.8,11.8,0,0,1,35,16.38a8.11,8.11,0,0,1,4.56-2.47c2.41-.17,3.13,1.59,5.54,3.12,7.32,4.68,13.51,6.26,22.55,6.37l-1,5.2a1.5,1.5,0,0,0-.54,1.3,1.52,1.52,0,0,0,.17.57l-.07.35.35,0a1.52,1.52,0,0,0,1.18.42c1.47-.13,2.35,0,2.56.4.32.65,0,2-1,4.3l-4.93,8.13a38.61,38.61,0,0,1-6,8.23,12.15,12.15,0,0,1-8.73,3.47,11.83,11.83,0,0,1-8.24-3.32,37.21,37.21,0,0,1-5.86-7.7l-4.39-7h0l0,0a10.23,10.23,0,0,1-2-5,2.46,2.46,0,0,1,.18-1.06,1.53,1.53,0,0,1,.54-.62,4.16,4.16,0,0,1,2.16-.54,1.53,1.53,0,0,0,.5-.1Zm3,32.91,7.86,23.11,4-13.71-1.94-2.12c-.87-1.27-1.06-2.39-.58-3.35,1.05-2.08,3.22-1.69,5.25-1.69s4.75-.4,5.41,2.26a3.55,3.55,0,0,1-.68,2.78L52.7,72.78l3.95,13.71,7.12-23.11c5.13,4.62,20.33,5.55,26,8.7a14.89,14.89,0,0,1,4.7,4A19.09,19.09,0,0,1,98,86.38l1.18,18.69c-.29,3.05-2,4.81-5.43,5.07H5.43c-3.41-.26-5.14-2-5.43-5.07L1.18,86.38A19.15,19.15,0,0,1,4.69,76.06a14.76,14.76,0,0,1,4.7-4c5.66-3.15,20.85-4.08,26-8.7Zm35.3-34.92.27-11.13a17,17,0,0,0-4.3-10.76C60.65.09,49.47-1.57,41,1.48a19.43,19.43,0,0,0-4,2,16.82,16.82,0,0,0-7.42,9.46,16,16,0,0,0-.54,2.84A111.21,111.21,0,0,0,29.28,28a5.31,5.31,0,0,0-1.19.6,4.48,4.48,0,0,0-1.6,1.86,5.23,5.23,0,0,0-.45,2.4,13,13,0,0,0,2.53,6.52l4.39,7a39.32,39.32,0,0,0,6.38,8.31,14.67,14.67,0,0,0,10.27,4.11,15,15,0,0,0,10.78-4.28,41,41,0,0,0,6.55-8.86l5-8.24.09-.17h0c1.4-3.18,1.69-5.41.94-6.91a3.62,3.62,0,0,0-2.31-1.87ZM104.18,36V34.83a.24.24,0,0,1,.24-.24l9,.61-9,1.07a.25.25,0,0,1-.24-.25Zm-3.56-3.13a2.54,2.54,0,1,1-2.53,2.54,2.54,2.54,0,0,1,2.53-2.54Zm-1.07-1.58h2.14a.24.24,0,0,0,.24-.24l-1.24-9-1.38,9a.24.24,0,0,0,.24.24ZM113.78,20.2a17,17,0,1,0,5,12,16.92,16.92,0,0,0-5-12Z" transform="translate(0 0)"/></svg>