<?xml version="1.0" encoding="utf-8"?>
<!-- Generator: Adobe Illustrator 24.1.2, SVG Export Plug-In . SVG Version: 6.00 Build 0)  -->
<svg version="1.1" id="Layer_1" xmlns="http://www.w3.org/2000/svg" xmlns:xlink="http://www.w3.org/1999/xlink" x="0px" y="0px"
	 viewBox="0 0 5.3 5.3" style="enable-background:new 0 0 5.3 5.3;" xml:space="preserve">
<style type="text/css">
	.st0{fill:#D1DF53;}
</style>
<g>
	<g>
		<path class="st0" d="M4.1,5.2c0,0-0.1,0-0.1-0.1C2.5,3.3,3,1.8,3.5,0.9C2.8,1.1,2.2,1,1.8,0.8c0.5,0.9,1,2.5-0.5,4.3
			c-0.1,0.1-0.2,0.1-0.2,0C1,5.1,1,5,1,4.9c2-2.4,0.2-4.3,0-4.6c0,0,0,0,0,0C0.9,0.2,0.9,0.1,1,0C1,0,1.1,0,1.2,0c0,0,0,0,0,0
			c0.2,0.2,1.5,1.3,2.9,0c0,0,0,0,0,0c0,0,0,0,0,0c0,0,0,0,0,0C4.2,0,4.3,0,4.3,0.1c0.1,0.1,0.1,0.2,0,0.2c0,0,0,0,0,0
			C4.1,0.5,2.2,2.4,4.3,4.9c0.1,0.1,0,0.2,0,0.2C4.2,5.2,4.2,5.2,4.1,5.2z"/>
		<path class="st0" d="M4.2,5.3c0,0-0.1,0-0.1,0c-1.5-1.4-2.9-0.1-2.9,0C1.1,5.3,1,5.3,1,5.3C0.9,5.2,0.9,5.1,1,5c0,0,1.6-1.7,3.4,0
			c0.1,0.1,0.1,0.2,0,0.2C4.3,5.3,4.3,5.3,4.2,5.3z"/>
	</g>
</g>
<g>
	<g>
		<path class="st0" d="M5.1,4.4c0,0-0.1,0-0.1-0.1c0,0,0,0,0,0C4.8,4.1,2.9,2.2,0.4,4.3c-0.1,0.1-0.2,0-0.2,0c-0.1-0.1,0-0.2,0-0.2
			C2,2.5,3.5,3,4.4,3.5c-0.3-0.7-0.2-1.3,0-1.7C3.6,2.3,2,2.8,0.2,1.3c-0.1-0.1-0.1-0.2,0-0.2C0.2,1,0.3,1,0.4,1C2.8,3,4.7,1.3,5,1
			c0,0,0,0,0,0c0.1-0.1,0.2-0.1,0.2,0c0.1,0.1,0.1,0.2,0,0.2c0,0,0,0,0,0C5,1.5,3.9,2.7,5.3,4.1c0,0,0,0,0,0c0,0,0,0,0,0
			c0,0,0,0,0,0c0.1,0.1,0.1,0.2,0,0.2C5.2,4.4,5.2,4.4,5.1,4.4z"/>
		<path class="st0" d="M0.2,4.4c0,0-0.1,0-0.1,0C0,4.3,0,4.2,0,4.1c1.4-1.5,0.1-2.9,0-2.9C0,1.1,0,1,0,1c0.1-0.1,0.2-0.1,0.2,0
			c0,0,1.7,1.6,0,3.4C0.3,4.4,0.2,4.4,0.2,4.4z"/>
	</g>
</g>
</svg>
