<svg id="Layer_1" data-name="Layer 1" xmlns="http://www.w3.org/2000/svg" viewBox="0 0 5.38 5.3"><defs><style>.cls-1{fill:#fff;}</style></defs><path class="cls-1" d="M4.1,5.2A.1.1,0,0,1,4,5.1,3.42,3.42,0,0,1,3.5.9,2.36,2.36,0,0,1,1.8.8a3.57,3.57,0,0,1-.5,4.3c-.1.1-.2.1-.2,0S1,5,1,4.9A3.34,3.34,0,0,0,1,.3H1A.19.19,0,0,1,1,0h.2A2,2,0,0,0,4.1,0h0c.1,0,.2,0,.2.1s.1.2,0,.2h0a3.19,3.19,0,0,0,0,4.6.14.14,0,0,1,0,.2C4.2,5.2,4.2,5.2,4.1,5.2Z"/><path class="cls-1" d="M4.2,5.3H4.1a2,2,0,0,0-2.9,0H1A.19.19,0,0,1,1,5,2.33,2.33,0,0,1,4.4,5c.1.1.1.2,0,.2S4.3,5.3,4.2,5.3Z"/><path class="cls-1" d="M5.1,4.4A.1.1,0,0,1,5,4.3H5a3.19,3.19,0,0,0-4.6,0,.14.14,0,0,1-.2,0,.14.14,0,0,1,0-.2,3.33,3.33,0,0,1,4.2-.6,2,2,0,0,1,0-1.7A3.42,3.42,0,0,1,.2,1.3c-.1-.1-.1-.2,0-.2S.3,1,.4,1A3.24,3.24,0,0,0,5,1H5c.1-.1.2-.1.2,0s.1.2,0,.2h0a2,2,0,0,0,.1,2.9h0c.1.1.1.2,0,.2S5.2,4.4,5.1,4.4Z"/><path class="cls-1" d="M.2,4.4H.1A.37.37,0,0,1,0,4.1,2,2,0,0,0,0,1.2V1C.1.9.2.9.2,1a2.33,2.33,0,0,1,0,3.4Z"/></svg>