<?xml version="1.0" encoding="utf-8"?>
<!-- Generator: Adobe Illustrator 24.1.2, SVG Export Plug-In . SVG Version: 6.00 Build 0)  -->
<svg version="1.1" id="Layer_1" xmlns="http://www.w3.org/2000/svg" xmlns:xlink="http://www.w3.org/1999/xlink" x="0px" y="0px"
	 viewBox="0 0 122.9 104.4" style="enable-background:new 0 0 122.9 104.4;" xml:space="preserve">
<style type="text/css">
	.st0{fill-rule:evenodd;clip-rule:evenodd;fill:#A30A1B;}
</style>
<path class="st0" d="M97,0c14.3,0,25.9,11.6,25.9,25.9S111.3,51.8,97,51.8c-14.3,0-25.9-11.6-25.9-25.9c0-6.9,2.7-13.4,7.6-18.3
	C83.5,2.7,90.1,0,97,0z M3.7,10.9c-2,0-3.7-1.7-3.7-3.7s1.7-3.7,3.7-3.7h5.4c3.1,0,6.2,0.8,8.9,2.3c4.9,3.1,5.8,7.6,7,12.6h41.7
	c-0.6,2.4-0.9,4.9-0.9,7.3H27.1l8.4,31.5h59.3V57c0.7,0,1.4,0.1,2.2,0.1c1.8,0,3.7-0.2,5.5-0.5l-1.3,5.2c-0.4,1.7-1.9,2.8-3.6,2.8
	H37.5c1.3,4.9,2.6,7.5,4.4,8.7c2.2,1.4,5.9,1.5,12.2,1.4h42.5c2-0.1,3.8,1.4,3.9,3.5S99,82,97,82.1c-0.1,0-0.3,0-0.4,0H54.2
	c-7.8,0.1-12.6-0.1-16.4-2.6s-6-7.1-8.1-15.3l0,0L17.1,16.5c0-0.1,0-0.1-0.1-0.2c-0.3-1.7-1.3-3.3-2.8-4.2c-1.6-0.9-3.4-1.3-5.2-1.2
	H3.7z M60.9,33.5c0.3-1.4,1.6-2.3,3-2.1c1.1,0.2,1.9,1,2.1,2.1v14.2c-0.3,1.4-1.6,2.3-3,2.1c-1.1-0.2-1.9-1-2.1-2.1
	C60.9,47.6,60.9,33.5,60.9,33.5z M45.6,33.5c0.3-1.4,1.6-2.3,3-2.1c1.1,0.2,1.9,1,2.1,2.1v14.2c-0.3,1.4-1.6,2.3-3,2.1
	c-1.1-0.2-1.9-1-2.1-2.1V33.5z M85.7,86.4c5,0,9,4,9,9s-4,9-9,9s-9-4-9-9l0,0C76.7,90.4,80.7,86.4,85.7,86.4z M46.1,86.4
	c5,0,9,4,9,9s-4,9-9,9s-9-4-9-9l0,0C37.1,90.4,41.1,86.4,46.1,86.4z M110.2,23.5v4.8c0,1.1-0.9,2.1-2.1,2.1h-6.7V37
	c0,1.1-0.9,2.1-2.1,2.1h-4.8c-1.1,0-2.1-0.9-2.1-2.1v-6.6h-6.7c-1.1,0-2.1-0.9-2.1-2.1v-4.8c0-1.1,0.9-2.1,2.1-2.1h6.7v-6.7
	c0-1.1,0.9-2.1,2.1-2.1h4.8c1.1,0,2.1,0.9,2.1,2.1v6.7h6.7C109.3,21.4,110.2,22.3,110.2,23.5z"/>
</svg>
