<?xml version="1.0" encoding="utf-8"?>
<!-- Generator: Adobe Illustrator 24.1.2, SVG Export Plug-In . SVG Version: 6.00 Build 0)  -->
<svg version="1.1" id="Layer_1" xmlns="http://www.w3.org/2000/svg" xmlns:xlink="http://www.w3.org/1999/xlink" x="0px" y="0px"
	 viewBox="0 0 113.5 96.1" style="enable-background:new 0 0 113.5 96.1;" xml:space="preserve">
<style type="text/css">
	.st0{fill:#A30A1B;}
	.st1{fill-rule:evenodd;clip-rule:evenodd;fill:#4BA042;}
</style>
<g>
	<path class="st0" d="M3.5,7.1C1.6,7.1,0,5.4,0,3.5C0,1.6,1.6,0,3.5,0h9.1c0.1,0,0.3,0,0.4,0c3.2,0.1,6.1,0.7,8.5,2.2
		c2.7,1.7,4.6,4.3,5.7,8.1c0,0.1,0,0.2,0.1,0.3l0.9,3.6h34c-6.8,16.2-0.7,38,18.3,44H40c1.3,4.7,2.5,7.1,4.2,8.3
		c2.1,1.3,5.6,1.4,11.6,1.3h0.1l0,0h40.4c2,0,3.5,1.6,3.5,3.5c0,2-1.6,3.5-3.5,3.5H55.9l0,0c-7.4,0.1-12-0.1-15.6-2.5
		c-3.8-2.5-5.7-6.8-7.7-14.6l0,0l-12-45.3c0-0.1,0-0.1-0.1-0.2c-0.5-2-1.4-3.3-2.7-4c-1.3-0.8-2.9-1.2-4.9-1.2c-0.1,0-0.2,0-0.3,0
		L3.5,7.1L3.5,7.1L3.5,7.1z M85.8,78.9c4.7,0,8.6,3.8,8.6,8.6c0,4.7-3.8,8.6-8.6,8.6s-8.6-3.8-8.6-8.6
		C77.2,82.8,81.1,78.9,85.8,78.9L85.8,78.9L85.8,78.9z M48.2,78.9c4.7,0,8.6,3.8,8.6,8.6c0,4.7-3.8,8.6-8.6,8.6s-8.6-3.8-8.6-8.6
		C39.6,82.8,43.4,78.9,48.2,78.9L48.2,78.9L48.2,78.9z"/>
	<path class="st1" d="M91,5.3c12.4,0,22.5,10.1,22.5,22.5S103.4,50.3,91,50.3C61.4,50.3,61.4,5.3,91,5.3L91,5.3L91,5.3z M81.1,28.4
		c0.3-1.8,2.3-2.7,3.9-1.8c0.1,0.1,0.3,0.2,0.4,0.3l0,0c0.7,0.7,1.5,1.4,2.3,2.1l0.7,0.6l8-8.4c0.5-0.5,0.8-0.8,1.6-1
		c2.4-0.5,4.2,2.5,2.4,4.3L90.3,35c-0.9,1-2.6,1.1-3.6,0.1c-0.6-0.5-1.2-1.1-1.8-1.6c-1.1-1-2.2-1.9-3.1-2.9
		C81.2,30,80.9,29.1,81.1,28.4L81.1,28.4L81.1,28.4L81.1,28.4z"/>
</g>
</svg>
