<?xml version="1.0" encoding="utf-8"?>
<!-- Generator: Adobe Illustrator 24.1.2, SVG Export Plug-In . SVG Version: 6.00 Build 0)  -->
<svg version="1.1" id="Layer_1" xmlns="http://www.w3.org/2000/svg" xmlns:xlink="http://www.w3.org/1999/xlink" x="0px" y="0px"
	 viewBox="0 0 526.6 120.7" style="enable-background:new 0 0 526.6 120.7;" xml:space="preserve">
<style type="text/css">
	.st0{fill:#FFFFFF;}
</style>
<g id="Layer_1_1_">
</g>
<g id="new_samples">
</g>
<g id="Layer_3">
</g>
<g id="Layer_5">
</g>
<g>
	<g>
		<polygon class="st0" points="8.7,4.3 47.4,42.4 13.4,0 4.3,7.4 4.3,8.3 8.5,4.1 		"/>
		<polygon class="st0" points="3.5,9.4 0,12.6 0.8,43.7 11,53.9 12.2,53.5 1.4,38.5 		"/>
		<polygon class="st0" points="8.5,4.8 4,9.3 1.9,38.3 12.6,53.2 47.8,43.5 		"/>
		<polygon points="48.4,43.6 48.3,43.5 48.3,43.5 		"/>
		<polygon points="48.3,43.5 48.3,43.5 48.3,43.5 48.3,43.5 		"/>
		<polygon points="48.4,43.5 48.3,43.5 48.3,43.5 		"/>
		<polygon points="48.3,43.5 48.3,43.5 48.3,43.5 48.3,43.5 		"/>
	</g>
	<g>
		<polygon class="st0" points="46.6,44.1 2.7,56.3 2.6,78.6 6.5,81 4.6,61.8 		"/>
		<polygon class="st0" points="15.6,86.9 6.8,81.5 7,83.4 21.3,90.2 47.4,45.2 		"/>
		<polygon class="st0" points="5.1,62.1 7,81.1 15.4,86.3 47.4,44.3 		"/>
	</g>
	<g>
		<path class="st0" d="M100,63.6v9.5H61.2v-56h38.1v9.5H72v13.4h23.5V49H72v14.6L100,63.6L100,63.6z"/>
		<path class="st0" d="M107.2,56.3v-9.5H131v9.5L107.2,56.3L107.2,56.3z"/>
		<path class="st0" d="M156.6,17.2h11.1l20.5,56H177l-4.6-13.9h-20.5l-4.6,13.9H136L156.6,17.2z M169.8,51.5l-7.7-23.1l-7.8,23.1
			H169.8z"/>
		<path class="st0" d="M226.9,31.9c-0.4-0.4-1-0.9-2-1.5c-0.9-0.7-2.2-1.2-3.5-1.8c-1.4-0.6-2.9-1.1-4.5-1.5
			c-1.6-0.5-3.3-0.7-4.9-0.7c-2.9,0-5.2,0.6-6.6,1.6c-1.4,1-2.3,2.6-2.3,4.6c0,1.5,0.5,2.7,1.4,3.6s2.4,1.6,4.3,2.3
			c1.9,0.7,4.3,1.3,7.1,2.1c3.7,0.9,6.9,2,9.5,3.2c2.7,1.3,4.8,2.9,6.2,5c1.4,2.1,2.2,4.8,2.2,8.2c0,2.9-0.6,5.5-1.6,7.7
			c-1,2.2-2.6,3.8-4.5,5.1c-2,1.3-4.2,2.3-6.6,2.8c-2.5,0.6-5.1,0.9-7.8,0.9c-2.7,0-5.6-0.3-8.3-0.9c-2.7-0.6-5.5-1.4-8-2.5
			c-2.6-1-4.9-2.4-7.1-3.9l4.8-9.4c0.5,0.5,1.3,1.1,2.6,1.9c1.2,0.8,2.6,1.5,4.4,2.3c1.7,0.8,3.6,1.4,5.7,1.9
			c2.1,0.6,4.2,0.8,6.2,0.8c2.9,0,5.2-0.5,6.7-1.5c1.5-0.9,2.3-2.4,2.3-4.2c0-1.7-0.6-3-1.8-3.9c-1.2-0.9-2.9-1.8-5-2.5
			c-2.2-0.7-4.7-1.5-7.7-2.3c-3.5-0.9-6.4-2.1-8.8-3.3c-2.4-1.2-4.2-2.7-5.3-4.6s-1.7-4.3-1.7-7.1c0-3.8,0.9-7,2.7-9.6
			c1.8-2.6,4.3-4.5,7.4-5.9s6.5-2,10.3-2c2.6,0,5.1,0.3,7.5,0.9c2.4,0.6,4.5,1.3,6.6,2.3c2.1,0.9,3.9,2,5.5,3L226.9,31.9z"/>
		<path class="st0" d="M238.4,44.7c0-3.4,0.7-6.7,1.9-10c1.2-3.3,3-6.2,5.4-9s5.3-4.8,8.7-6.4c3.4-1.6,7.3-2.4,11.6-2.4
			c5.1,0,9.5,1.1,13.3,3.4s6.5,5.2,8.4,8.8l-8.3,5.8c-0.9-2.1-2.2-3.8-3.7-5c-1.5-1.2-3.1-2.1-4.9-2.6c-1.7-0.5-3.4-0.8-5.1-0.8
			c-2.7,0-5.1,0.6-7.1,1.6c-2,1.1-3.7,2.6-5.1,4.3c-1.3,1.8-2.4,3.8-3,6s-0.9,4.4-0.9,6.6c0,2.5,0.4,4.8,1.1,7.1
			c0.8,2.3,1.9,4.3,3.3,6.1c1.4,1.8,3.2,3.1,5.2,4.2c2,1,4.3,1.5,6.6,1.5c1.7,0,3.5-0.3,5.3-0.9c1.8-0.6,3.4-1.5,4.9-2.7
			s2.7-2.9,3.5-4.9l8.9,5.1c-1.1,2.7-2.9,5.1-5.4,7.1c-2.5,2-5.3,3.4-8.4,4.4s-6.1,1.5-9.2,1.5c-4,0-7.7-0.9-11-2.5
			c-3.3-1.6-6.1-3.9-8.5-6.6s-4.3-5.9-5.6-9.3C239.1,51.7,238.4,48.2,238.4,44.7z"/>
		<path class="st0" d="M334.7,63.6v9.5h-38.9v-56h38.1v9.5h-27.2v13.4h23.5V49h-23.5v14.6L334.7,63.6L334.7,63.6z"/>
		<path class="st0" d="M354.1,37.2v35.9h-10.9v-56h8.7l28.9,36.9V17.3h10.9v55.8h-9.1L354.1,37.2z"/>
		<path class="st0" d="M399.8,44.7c0-3.4,0.7-6.7,1.9-10c1.2-3.3,3-6.2,5.4-9c2.4-2.7,5.3-4.8,8.7-6.4c3.4-1.6,7.3-2.4,11.6-2.4
			c5.1,0,9.5,1.1,13.3,3.4s6.5,5.2,8.4,8.8l-8.3,5.8c-0.9-2.1-2.2-3.8-3.7-5c-1.5-1.2-3.1-2.1-4.9-2.6c-1.7-0.5-3.4-0.8-5.1-0.8
			c-2.7,0-5.1,0.6-7.1,1.6c-2,1.1-3.7,2.6-5.1,4.3c-1.3,1.8-2.4,3.8-3,6s-0.9,4.4-0.9,6.6c0,2.5,0.4,4.8,1.1,7.1
			c0.8,2.3,1.9,4.3,3.3,6.1c1.4,1.8,3.2,3.1,5.2,4.2c2,1,4.3,1.5,6.6,1.5c1.7,0,3.5-0.3,5.3-0.9c1.8-0.6,3.4-1.5,4.9-2.7
			s2.7-2.9,3.5-4.9l8.9,5.1c-1.1,2.7-2.9,5.1-5.4,7.1c-2.5,2-5.3,3.4-8.4,4.4s-6.1,1.5-9.2,1.5c-4,0-7.7-0.9-11-2.5
			c-3.3-1.6-6.1-3.9-8.5-6.6c-2.4-2.7-4.3-5.9-5.6-9.3C400.6,51.7,399.8,48.2,399.8,44.7z"/>
		<path class="st0" d="M457.3,73.2v-56h10.9v55.9L457.3,73.2L457.3,73.2z"/>
		<path class="st0" d="M494.9,17.2H506l20.5,55.9h-11.2l-4.6-13.9h-20.5l-4.6,13.9h-11.2L494.9,17.2z M508.2,51.5l-7.7-23.1
			l-7.8,23.1H508.2z"/>
	</g>
	<g>
		<path class="st0" d="M266,93.7c3.2,3.1,4.8,6.8,4.8,11.2s-1.6,8.1-4.8,11.2c-3.2,3.1-7,4.6-11.4,4.6c-4.3,0-8.1-1.5-11.3-4.6
			c-3.2-3.1-4.8-6.7-4.8-11c0-4.4,1.6-8.2,4.7-11.3c3.1-3.1,7-4.7,11.4-4.7C259,89.1,262.8,90.7,266,93.7z M263.8,114.1
			c2.6-2.5,3.9-5.6,3.9-9.2c0-3.6-1.3-6.6-3.9-9.2c-2.6-2.6-5.7-3.9-9.3-3.9c-3.6,0-6.7,1.3-9.3,3.9c-2.5,2.6-3.8,5.7-3.8,9.3
			c0,3.5,1.3,6.5,3.9,9.1s5.7,3.8,9.2,3.8C258.1,118,261.2,116.7,263.8,114.1z"/>
		<path class="st0" d="M295,120.2h-2.9v-12.4c0-2.8-0.7-4.8-2.1-6.2c-1.4-1.3-3-1.9-4.9-1.9c-1.9,0-3.5,0.6-4.9,1.9
			c-1.4,1.3-2.1,3.3-2.1,6v12.6h-2.9V97.6h2.9v2.9h0.1c0.7-1.1,1.7-2,2.9-2.6c1.3-0.6,2.6-0.9,4-0.9c3.2,0,5.6,1,7.3,2.9
			c1.7,2,2.6,4.6,2.6,7.8V120.2z"/>
		<path class="st0" d="M303.2,120.2h-2.9V89.7h2.9V120.2z"/>
		<path class="st0" d="M311.5,94.9h-2.9v-5.2h2.9V94.9z M311.5,120.2h-2.9V97.6h2.9V120.2z"/>
		<path class="st0" d="M336.7,120.2h-2.9v-12.4c0-2.8-0.7-4.8-2.1-6.2c-1.4-1.3-3-1.9-4.9-1.9c-1.9,0-3.5,0.6-4.9,1.9
			c-1.4,1.3-2.1,3.3-2.1,6v12.6h-2.9V97.6h2.9v2.9h0.1c0.7-1.1,1.7-2,2.9-2.6c1.3-0.6,2.6-0.9,4-0.9c3.2,0,5.6,1,7.3,2.9
			c1.7,2,2.6,4.6,2.6,7.8V120.2z"/>
		<path class="st0" d="M364.5,109.1c0,0.1,0,0.2,0,0.4c0,0.2,0,0.3,0,0.4h-20.5c0.1,2.2,1,4.1,2.8,5.7c1.7,1.6,3.7,2.4,6,2.4
			c1.8,0,3.4-0.5,4.9-1.4c1.5-1,2.6-2.3,3.2-3.9h3.1c-0.8,2.4-2.3,4.3-4.3,5.7c-2,1.5-4.3,2.2-6.8,2.2c-3.2,0-6-1.2-8.3-3.5
			c-2.3-2.3-3.4-5.1-3.4-8.3c0-3.2,1.1-6,3.4-8.4c2.3-2.3,5.1-3.5,8.3-3.5c3.3,0,6.1,1.2,8.4,3.6C363.3,103,364.5,105.9,364.5,109.1
			z M361.5,107.4c-0.4-2.2-1.4-4.1-3-5.5c-1.6-1.5-3.6-2.2-5.8-2.2c-2.2,0-4.2,0.7-5.8,2.2c-1.6,1.5-2.6,3.3-3,5.5H361.5z"/>
		<path class="st0" d="M402.6,113.5c-2.4,4.8-6.2,7.2-11.2,7.2c-3.4,0-6.2-1.1-8.6-3.4c-2.4-2.3-3.5-5.1-3.5-8.4
			c0-3.3,1.2-6.1,3.6-8.4c2.4-2.3,5.2-3.5,8.6-3.5c2.5,0,4.7,0.7,6.8,2c2,1.3,3.5,3.1,4.4,5.4h-3.2c-0.8-1.5-1.9-2.7-3.3-3.5
			c-1.4-0.9-3-1.3-4.6-1.3c-2.6,0-4.8,0.9-6.6,2.7c-1.8,1.8-2.7,4-2.7,6.5c0,2.6,0.9,4.8,2.7,6.6c1.8,1.8,4,2.7,6.6,2.7
			c1.7,0,3.3-0.4,4.7-1.2c1.4-0.8,2.5-1.9,3.3-3.4H402.6z"/>
		<path class="st0" d="M429.6,108.9c0,3.2-1.2,6-3.5,8.4c-2.3,2.3-5.1,3.5-8.4,3.5c-3.2,0-5.9-1.2-8.3-3.5c-2.3-2.3-3.5-5-3.5-8.2
			c0-3.3,1.1-6.1,3.4-8.5c2.3-2.4,5.1-3.5,8.3-3.5c3.2,0,6,1.2,8.3,3.5C428.4,102.9,429.6,105.7,429.6,108.9z M426.7,108.8
			c0-2.5-0.9-4.6-2.6-6.4c-1.7-1.8-3.8-2.7-6.3-2.7c-2.5,0-4.6,0.9-6.3,2.8c-1.7,1.9-2.6,4.1-2.6,6.6c0,2.5,0.9,4.6,2.6,6.4
			s3.8,2.7,6.3,2.7c2.6,0,4.7-0.9,6.4-2.7C425.9,113.6,426.7,111.3,426.7,108.8z"/>
		<path class="st0" d="M453.6,120.2h-2.7v-3.5h-0.1c-0.6,1.3-1.6,2.3-2.9,3c-1.3,0.7-2.7,1-4.3,1c-3.4,0-6-1.1-7.8-3.4
			c-1.3-1.7-2-4.1-2-7.3V97.6h2.9V110c0,5.4,2.3,8.1,6.8,8.1c1.9,0,3.5-0.6,4.8-1.8c0.9-0.9,1.5-1.9,1.9-2.9
			c0.3-1.1,0.5-2.4,0.5-3.8V97.6h2.9V120.2z"/>
		<path class="st0" d="M468.4,100.1c-2,0.2-3.6,0.9-4.7,2.1c-1.1,1.2-1.7,2.8-1.7,4.8v13.2h-2.9V97.6h2.9v3.3h0.1
			c0.6-1.3,1.4-2.3,2.4-2.8c1-0.5,2.3-0.9,4-1V100.1z"/>
		<path class="st0" d="M483.8,113.8c0,2.1-0.6,3.8-1.9,5.1c-1.3,1.2-3,1.8-5.2,1.8c-2,0-3.7-0.7-5-2c-1.3-1.3-2-3-2-5v-0.2h2.9
			c0,1.4,0.4,2.5,1.1,3.3c0.7,0.9,1.7,1.3,3,1.3c1.3,0,2.3-0.4,3.1-1.1c0.8-0.7,1.1-1.7,1.1-3c0-1.1-0.4-2-1.1-2.7
			c-0.7-0.7-1.6-1.2-2.6-1.6c-1-0.4-2.1-0.8-3.1-1.2c-1-0.4-1.9-1.1-2.6-1.9c-0.7-0.9-1.1-2-1.1-3.4c0-1.8,0.6-3.3,1.8-4.5
			c1.2-1.2,2.8-1.8,4.6-1.8c1.7,0,3.2,0.6,4.4,1.8c1.2,1.2,1.8,2.6,1.8,4.4h-2.9c-0.1-1-0.4-1.9-1-2.5c-0.6-0.7-1.4-1-2.4-1
			c-1,0-1.8,0.3-2.4,1c-0.7,0.6-1,1.5-1,2.4c0,0.9,0.4,1.7,1.1,2.3c0.7,0.6,1.6,1,2.6,1.4c1,0.4,2.1,0.8,3.1,1.2
			c1,0.4,1.9,1.2,2.6,2.1C483.5,111,483.8,112.3,483.8,113.8z"/>
		<path class="st0" d="M509.9,109.1c0,0.1,0,0.2,0,0.4c0,0.2,0,0.3,0,0.4h-20.5c0.1,2.2,1,4.1,2.8,5.7c1.7,1.6,3.7,2.4,6,2.4
			c1.8,0,3.4-0.5,4.9-1.4c1.5-1,2.6-2.3,3.2-3.9h3.1c-0.8,2.4-2.3,4.3-4.3,5.7c-2,1.5-4.3,2.2-6.8,2.2c-3.2,0-6-1.2-8.3-3.5
			c-2.3-2.3-3.4-5.1-3.4-8.3c0-3.2,1.1-6,3.4-8.4c2.3-2.3,5.1-3.5,8.3-3.5c3.3,0,6.1,1.2,8.4,3.6C508.8,103,509.9,105.9,509.9,109.1
			z M507,107.4c-0.4-2.2-1.4-4.1-3-5.5c-1.6-1.5-3.6-2.2-5.8-2.2c-2.2,0-4.2,0.7-5.8,2.2c-1.6,1.5-2.6,3.3-3,5.5H507z"/>
		<path class="st0" d="M526.6,113.8c0,2.1-0.6,3.8-1.9,5.1c-1.3,1.2-3,1.8-5.2,1.8c-2,0-3.7-0.7-5-2c-1.3-1.3-2-3-2-5v-0.2h2.9
			c0,1.4,0.4,2.5,1.1,3.3c0.7,0.9,1.7,1.3,3,1.3c1.3,0,2.3-0.4,3.1-1.1c0.8-0.7,1.1-1.7,1.1-3c0-1.1-0.4-2-1.1-2.7
			c-0.7-0.7-1.6-1.2-2.6-1.6c-1-0.4-2.1-0.8-3.1-1.2c-1-0.4-1.9-1.1-2.6-1.9c-0.7-0.9-1.1-2-1.1-3.4c0-1.8,0.6-3.3,1.8-4.5
			c1.2-1.2,2.8-1.8,4.6-1.8c1.7,0,3.2,0.6,4.4,1.8c1.2,1.2,1.8,2.6,1.8,4.4H523c-0.1-1-0.4-1.9-1-2.5c-0.6-0.7-1.4-1-2.4-1
			c-1,0-1.8,0.3-2.4,1c-0.7,0.6-1,1.5-1,2.4c0,0.9,0.4,1.7,1.1,2.3c0.7,0.6,1.6,1,2.6,1.4c1,0.4,2.1,0.8,3.1,1.2
			c1,0.4,1.9,1.2,2.6,2.1C526.3,111,526.6,112.3,526.6,113.8z"/>
	</g>
</g>
</svg>
