<?xml version="1.0" encoding="utf-8"?>
<!-- Generator: Adobe Illustrator 24.1.2, SVG Export Plug-In . SVG Version: 6.00 Build 0)  -->
<svg version="1.1" id="Layer_1" xmlns="http://www.w3.org/2000/svg" xmlns:xlink="http://www.w3.org/1999/xlink" x="0px" y="0px"
	 viewBox="0 0 112 29" style="enable-background:new 0 0 112 29;" xml:space="preserve">
<style type="text/css">
	.st0{fill:#C7C641;}
	.st1{fill:#DAE138;}
	.st2{fill:#262262;}
	.st3{fill:#2B3990;}
	.st4{fill:#231F20;}
</style>
<g id="Layer_2_1_">
	<g>
		<g id="Groupe_2_3_">
			<path id="Tracé_9_3_" class="st0" d="M10.3,14.2L2.9,4.9l-2,1.6v0.3l0.9-0.9L10.3,14.2z"/>
			<path id="Tracé_10_3_" class="st0" d="M2.7,16.3l-2.3-3.2l0.5-6.2L0,7.6l0.2,6.6l2.2,2.2l8-2.2L2.7,16.3z"/>
			<path id="Tracé_11_3_" class="st1" d="M2.7,16.3l7.6-2.1L1.8,5.9l-1,1l-0.5,6.2L2.7,16.3z"/>
		</g>
		<path id="Tracé_12_3_" class="st2" d="M10.3,14.2l-9.7,2.7l0,4.7l0.9,0.6L1,18.1L10.3,14.2z"/>
		<path id="Tracé_13_3_" class="st2" d="M3.3,23.3l-1.9-1.1l0,0.5l3,1.4l5.8-9.9L3.3,23.3z"/>
		<path id="Tracé_14_3_" class="st3" d="M10.3,14.2L1,18.1l0.4,4.1l1.9,1.1L10.3,14.2z"/>
		<g>
			<path class="st4" d="M21.3,18.4v2H13V8.6h8.1v2h-5.8v2.9h5v1.9h-5v3.1L21.3,18.4L21.3,18.4z"/>
			<path class="st4" d="M22.8,16.9v-2h5.1v2L22.8,16.9L22.8,16.9z"/>
			<path class="st4" d="M33.3,8.6h2.4L40,20.5h-2.4l-1-3h-4.4l-1,3h-2.4L33.3,8.6z M36.1,15.9L34.5,11l-1.6,4.9H36.1z"/>
			<path class="st4" d="M48.3,11.7c-0.1-0.1-0.2-0.2-0.4-0.3c-0.2-0.1-0.5-0.3-0.7-0.4c-0.3-0.1-0.6-0.2-1-0.3
				c-0.3-0.1-0.7-0.1-1-0.1c-0.6,0-1.1,0.1-1.4,0.3s-0.5,0.6-0.5,1c0,0.3,0.1,0.6,0.3,0.8c0.2,0.2,0.5,0.3,0.9,0.5
				c0.4,0.1,0.9,0.3,1.5,0.4c0.8,0.2,1.5,0.4,2,0.7c0.6,0.3,1,0.6,1.3,1.1s0.5,1,0.5,1.7c0,0.6-0.1,1.2-0.3,1.6
				c-0.2,0.5-0.6,0.8-1,1.1C48,20,47.5,20.2,47,20.4c-0.5,0.1-1.1,0.2-1.7,0.2c-0.6,0-1.2-0.1-1.8-0.2c-0.6-0.1-1.2-0.3-1.7-0.5
				c-0.5-0.2-1-0.5-1.5-0.8l1-2c0.1,0.1,0.3,0.2,0.5,0.4s0.6,0.3,0.9,0.5c0.4,0.2,0.8,0.3,1.2,0.4c0.4,0.1,0.9,0.2,1.3,0.2
				c0.6,0,1.1-0.1,1.4-0.3c0.3-0.2,0.5-0.5,0.5-0.9c0-0.4-0.1-0.6-0.4-0.8c-0.3-0.2-0.6-0.4-1.1-0.5c-0.5-0.1-1-0.3-1.6-0.5
				c-0.7-0.2-1.4-0.4-1.9-0.7c-0.5-0.3-0.9-0.6-1.1-1c-0.2-0.4-0.4-0.9-0.4-1.5c0-0.8,0.2-1.5,0.6-2.1c0.4-0.5,0.9-1,1.6-1.2
				s1.4-0.4,2.2-0.4c0.6,0,1.1,0.1,1.6,0.2c0.5,0.1,1,0.3,1.4,0.5c0.4,0.2,0.8,0.4,1.2,0.6L48.3,11.7z"/>
			<path class="st4" d="M50.7,14.4c0-0.7,0.1-1.4,0.4-2.1s0.6-1.3,1.1-1.9c0.5-0.6,1.1-1,1.9-1.4c0.7-0.3,1.5-0.5,2.5-0.5
				c1.1,0,2,0.2,2.8,0.7c0.8,0.5,1.4,1.1,1.8,1.9l-1.8,1.2c-0.2-0.4-0.5-0.8-0.8-1.1c-0.3-0.3-0.7-0.4-1-0.5
				c-0.4-0.1-0.7-0.2-1.1-0.2c-0.6,0-1.1,0.1-1.5,0.3c-0.4,0.2-0.8,0.5-1.1,0.9c-0.3,0.4-0.5,0.8-0.6,1.3s-0.2,0.9-0.2,1.4
				c0,0.5,0.1,1,0.2,1.5c0.2,0.5,0.4,0.9,0.7,1.3c0.3,0.4,0.7,0.7,1.1,0.9c0.4,0.2,0.9,0.3,1.4,0.3c0.4,0,0.7-0.1,1.1-0.2
				s0.7-0.3,1-0.6c0.3-0.3,0.6-0.6,0.7-1l1.9,1.1c-0.2,0.6-0.6,1.1-1.1,1.5c-0.5,0.4-1.1,0.7-1.8,0.9c-0.7,0.2-1.3,0.3-2,0.3
				c-0.8,0-1.6-0.2-2.3-0.5s-1.3-0.8-1.8-1.4c-0.5-0.6-0.9-1.2-1.2-2C50.9,15.9,50.7,15.2,50.7,14.4z"/>
			<path class="st4" d="M71.2,18.4v2h-8.3V8.6H71v2h-5.8v2.9h5v1.9h-5v3.1L71.2,18.4L71.2,18.4z"/>
			<path class="st4" d="M75.3,12.8v7.6H73V8.6h1.9l6.2,7.8V8.6h2.3v11.9h-1.9L75.3,12.8z"/>
			<path class="st4" d="M85.1,14.4c0-0.7,0.1-1.4,0.4-2.1s0.6-1.3,1.1-1.9c0.5-0.6,1.1-1,1.9-1.4c0.7-0.3,1.5-0.5,2.5-0.5
				c1.1,0,2,0.2,2.8,0.7c0.8,0.5,1.4,1.1,1.8,1.9l-1.8,1.2c-0.2-0.4-0.5-0.8-0.8-1.1c-0.3-0.3-0.7-0.4-1-0.5
				c-0.4-0.1-0.7-0.2-1.1-0.2c-0.6,0-1.1,0.1-1.5,0.3c-0.4,0.2-0.8,0.5-1.1,0.9c-0.3,0.4-0.5,0.8-0.6,1.3c-0.1,0.5-0.2,0.9-0.2,1.4
				c0,0.5,0.1,1,0.2,1.5c0.2,0.5,0.4,0.9,0.7,1.3c0.3,0.4,0.7,0.7,1.1,0.9c0.4,0.2,0.9,0.3,1.4,0.3c0.4,0,0.7-0.1,1.1-0.2
				c0.4-0.1,0.7-0.3,1-0.6c0.3-0.3,0.6-0.6,0.7-1l1.9,1.1c-0.2,0.6-0.6,1.1-1.1,1.5c-0.5,0.4-1.1,0.7-1.8,0.9
				c-0.7,0.2-1.3,0.3-2,0.3c-0.8,0-1.6-0.2-2.3-0.5s-1.3-0.8-1.8-1.4c-0.5-0.6-0.9-1.2-1.2-2C85.2,15.9,85.1,15.2,85.1,14.4z"/>
			<path class="st4" d="M97.3,20.5V8.6h2.3v11.9L97.3,20.5L97.3,20.5z"/>
			<path class="st4" d="M105.3,8.6h2.4l4.4,11.9h-2.4l-1-3h-4.4l-1,3h-2.4L105.3,8.6z M108.1,15.9l-1.6-4.9l-1.6,4.9H108.1z"/>
		</g>
	</g>
</g>
<g id="Layer_5">
</g>
</svg>
