<?xml version="1.0" encoding="utf-8"?>
<!-- Generator: Adobe Illustrator 24.1.2, SVG Export Plug-In . SVG Version: 6.00 Build 0)  -->
<svg version="1.1" id="Layer_1" xmlns="http://www.w3.org/2000/svg" xmlns:xlink="http://www.w3.org/1999/xlink" x="0px" y="0px"
	 viewBox="0 0 140.2 32.1" style="enable-background:new 0 0 140.2 32.1;" xml:space="preserve">
<style type="text/css">
	.st0{fill:#C7C641;}
	.st1{fill:#DAE138;}
	.st2{fill:#262262;}
	.st3{fill:#2B3990;}
	.st4{fill:#231F20;}
</style>
<g>
	<g id="Layer_2_1_">
		<g>
			<g id="Groupe_2_3_">
				<path id="Tracé_9_3_" class="st0" d="M12.9,11.6L3.6,0L1.1,2v0.4l1.1-1.1L12.9,11.6z"/>
				<path id="Tracé_10_3_" class="st0" d="M3.3,14.2l-2.9-4L1,2.4L0,3.3l0.2,8.3l2.7,2.7l10-2.8L3.3,14.2z"/>
				<path id="Tracé_11_3_" class="st1" d="M3.3,14.2l9.5-2.6L2.3,1.2L1,2.4l-0.6,7.8L3.3,14.2z"/>
			</g>
			<path id="Tracé_12_3_" class="st2" d="M12.9,11.6L0.7,15l-0.1,5.9l1.2,0.7l-0.6-5.1L12.9,11.6z"/>
			<path id="Tracé_13_3_" class="st2" d="M4.1,23l-2.3-1.4l0.1,0.6L5.7,24l7.2-12.4L4.1,23z"/>
			<path id="Tracé_14_3_" class="st3" d="M12.8,11.6L1.3,16.5l0.5,5.1L4.1,23L12.8,11.6z"/>
			<g>
				<path class="st4" d="M26.6,16.9v2.5H16.3V4.6h10.1v2.5h-7.2v3.6h6.3V13h-6.3v3.9L26.6,16.9L26.6,16.9z"/>
				<path class="st4" d="M28.5,15v-2.5h6.3V15L28.5,15L28.5,15z"/>
				<path class="st4" d="M41.7,4.6h2.9l5.5,14.9h-3l-1.2-3.7h-5.5l-1.2,3.7h-3L41.7,4.6z M45.2,13.7l-2-6.1l-2.1,6.1H45.2z"/>
				<path class="st4" d="M60.4,8.5c-0.1-0.1-0.3-0.2-0.5-0.4c-0.3-0.2-0.6-0.3-0.9-0.5c-0.4-0.2-0.8-0.3-1.2-0.4
					C57.3,7.1,56.8,7,56.4,7c-0.8,0-1.4,0.2-1.8,0.4C54.3,7.7,54,8.2,54,8.7c0,0.4,0.1,0.7,0.4,1c0.3,0.2,0.6,0.4,1.1,0.6
					c0.5,0.2,1.1,0.4,1.9,0.6c1,0.2,1.8,0.5,2.5,0.9c0.7,0.4,1.3,0.8,1.7,1.3c0.4,0.6,0.6,1.3,0.6,2.2c0,0.8-0.2,1.5-0.4,2
					c-0.3,0.6-0.7,1-1.2,1.4c-0.5,0.4-1.1,0.6-1.8,0.8c-0.7,0.2-1.4,0.3-2.1,0.3c-0.7,0-1.5-0.1-2.2-0.2c-0.7-0.2-1.5-0.4-2.1-0.7
					c-0.7-0.3-1.3-0.6-1.9-1l1.3-2.5c0.1,0.1,0.4,0.3,0.7,0.5c0.3,0.2,0.7,0.4,1.2,0.6c0.5,0.2,1,0.4,1.5,0.5
					c0.6,0.2,1.1,0.2,1.7,0.2c0.8,0,1.4-0.1,1.8-0.4c0.4-0.3,0.6-0.6,0.6-1.1c0-0.5-0.2-0.8-0.5-1c-0.3-0.3-0.8-0.5-1.3-0.7
					c-0.6-0.2-1.3-0.4-2-0.6c-0.9-0.3-1.7-0.6-2.3-0.9s-1.1-0.7-1.4-1.2c-0.3-0.5-0.5-1.1-0.5-1.9c0-1,0.3-1.9,0.7-2.6
					c0.5-0.7,1.1-1.2,2-1.6s1.7-0.5,2.7-0.5c0.7,0,1.4,0.1,2,0.2s1.2,0.4,1.8,0.6c0.6,0.3,1,0.5,1.5,0.8L60.4,8.5z"/>
				<path class="st4" d="M63.5,11.9c0-0.9,0.2-1.8,0.5-2.7c0.3-0.9,0.8-1.7,1.4-2.4s1.4-1.3,2.3-1.7c0.9-0.4,1.9-0.6,3.1-0.6
					c1.4,0,2.5,0.3,3.5,0.9c1,0.6,1.7,1.4,2.2,2.3l-2.2,1.5c-0.3-0.6-0.6-1-1-1.3c-0.4-0.3-0.8-0.6-1.3-0.7
					c-0.5-0.1-0.9-0.2-1.4-0.2c-0.7,0-1.4,0.2-1.9,0.4c-0.5,0.3-1,0.7-1.4,1.2c-0.4,0.5-0.6,1-0.8,1.6c-0.2,0.6-0.3,1.2-0.3,1.8
					c0,0.7,0.1,1.3,0.3,1.9c0.2,0.6,0.5,1.2,0.9,1.6c0.4,0.5,0.9,0.8,1.4,1.1c0.5,0.3,1.1,0.4,1.8,0.4c0.5,0,0.9-0.1,1.4-0.2
					c0.5-0.2,0.9-0.4,1.3-0.7c0.4-0.3,0.7-0.8,0.9-1.3l2.4,1.4c-0.3,0.7-0.8,1.4-1.4,1.9c-0.7,0.5-1.4,0.9-2.2,1.2
					c-0.8,0.3-1.6,0.4-2.4,0.4c-1.1,0-2-0.2-2.9-0.7c-0.9-0.4-1.6-1-2.3-1.8s-1.1-1.6-1.5-2.5C63.6,13.8,63.5,12.8,63.5,11.9z"/>
				<path class="st4" d="M89.1,16.9v2.5H78.7V4.6h10.1v2.5h-7.2v3.6h6.3V13h-6.3v3.9L89.1,16.9L89.1,16.9z"/>
				<path class="st4" d="M94.2,9.9v9.6h-2.9V4.6h2.3l7.7,9.8V4.6h2.9v14.8h-2.4L94.2,9.9z"/>
				<path class="st4" d="M106.4,11.9c0-0.9,0.2-1.8,0.5-2.7s0.8-1.7,1.4-2.4s1.4-1.3,2.3-1.7c0.9-0.4,1.9-0.6,3.1-0.6
					c1.4,0,2.5,0.3,3.5,0.9c1,0.6,1.7,1.4,2.2,2.3l-2.2,1.5c-0.3-0.6-0.6-1-1-1.3c-0.4-0.3-0.8-0.6-1.3-0.7
					c-0.5-0.1-0.9-0.2-1.4-0.2c-0.7,0-1.4,0.2-1.9,0.4c-0.5,0.3-1,0.7-1.4,1.2c-0.4,0.5-0.6,1-0.8,1.6c-0.2,0.6-0.3,1.2-0.3,1.8
					c0,0.7,0.1,1.3,0.3,1.9c0.2,0.6,0.5,1.2,0.9,1.6c0.4,0.5,0.9,0.8,1.4,1.1c0.5,0.3,1.1,0.4,1.8,0.4c0.5,0,0.9-0.1,1.4-0.2
					c0.5-0.2,0.9-0.4,1.3-0.7c0.4-0.3,0.7-0.8,0.9-1.3l2.4,1.4c-0.3,0.7-0.8,1.4-1.4,1.9c-0.7,0.5-1.4,0.9-2.2,1.2
					c-0.8,0.3-1.6,0.4-2.4,0.4c-1.1,0-2-0.2-2.9-0.7c-0.9-0.4-1.6-1-2.3-1.8s-1.1-1.6-1.5-2.5C106.6,13.8,106.4,12.8,106.4,11.9z"/>
				<path class="st4" d="M121.7,19.5V4.6h2.9v14.9L121.7,19.5L121.7,19.5z"/>
				<path class="st4" d="M131.7,4.6h2.9l5.5,14.9h-3l-1.2-3.7h-5.5l-1.2,3.7h-3L131.7,4.6z M135.2,13.7l-2-6.1l-2.1,6.1H135.2z"/>
			</g>
		</g>
	</g>
	<g>
		<path class="st3" d="M70.8,25c0.8,0.8,1.3,1.8,1.3,3c0,1.2-0.4,2.2-1.3,3c-0.8,0.8-1.9,1.2-3,1.2c-1.1,0-2.2-0.4-3-1.2
			c-0.9-0.8-1.3-1.8-1.3-2.9c0-1.2,0.4-2.2,1.3-3c0.8-0.8,1.9-1.2,3-1.2C68.9,23.7,69.9,24.1,70.8,25z M70.2,30.4
			c0.7-0.7,1-1.5,1-2.4c0-1-0.3-1.8-1-2.5c-0.7-0.7-1.5-1-2.5-1c-1,0-1.8,0.3-2.5,1c-0.7,0.7-1,1.5-1,2.5c0,0.9,0.3,1.7,1,2.4
			c0.7,0.7,1.5,1,2.4,1C68.7,31.4,69.5,31.1,70.2,30.4z"/>
		<path class="st3" d="M78.5,32h-0.8v-3.3c0-0.7-0.2-1.3-0.6-1.6c-0.4-0.3-0.8-0.5-1.3-0.5c-0.5,0-0.9,0.2-1.3,0.5
			c-0.4,0.4-0.6,0.9-0.6,1.6V32h-0.8v-6H74v0.8h0c0.2-0.3,0.5-0.5,0.8-0.7c0.3-0.2,0.7-0.2,1.1-0.2c0.8,0,1.5,0.3,2,0.8
			c0.5,0.5,0.7,1.2,0.7,2.1V32z"/>
		<path class="st3" d="M80.7,32h-0.8v-8.1h0.8V32z"/>
		<path class="st3" d="M82.9,25.2h-0.8v-1.4h0.8V25.2z M82.9,32h-0.8v-6h0.8V32z"/>
		<path class="st3" d="M89.6,32h-0.8v-3.3c0-0.7-0.2-1.3-0.6-1.6c-0.4-0.3-0.8-0.5-1.3-0.5c-0.5,0-0.9,0.2-1.3,0.5
			c-0.4,0.4-0.6,0.9-0.6,1.6V32h-0.8v-6h0.8v0.8h0c0.2-0.3,0.5-0.5,0.8-0.7c0.3-0.2,0.7-0.2,1.1-0.2c0.8,0,1.5,0.3,2,0.8
			c0.5,0.5,0.7,1.2,0.7,2.1V32z"/>
		<path class="st3" d="M97,29c0,0,0,0.1,0,0.1c0,0,0,0.1,0,0.1h-5.5c0,0.6,0.3,1.1,0.7,1.5c0.5,0.4,1,0.6,1.6,0.6
			c0.5,0,0.9-0.1,1.3-0.4c0.4-0.3,0.7-0.6,0.8-1h0.8c-0.2,0.6-0.6,1.1-1.1,1.5c-0.5,0.4-1.1,0.6-1.8,0.6c-0.9,0-1.6-0.3-2.2-0.9
			c-0.6-0.6-0.9-1.4-0.9-2.2c0-0.9,0.3-1.6,0.9-2.2c0.6-0.6,1.3-0.9,2.2-0.9c0.9,0,1.6,0.3,2.2,1C96.7,27.4,97,28.2,97,29z
			 M96.2,28.6c-0.1-0.6-0.4-1.1-0.8-1.5c-0.4-0.4-0.9-0.6-1.5-0.6c-0.6,0-1.1,0.2-1.5,0.6c-0.4,0.4-0.7,0.9-0.8,1.5H96.2z"/>
		<path class="st3" d="M107.2,30.2c-0.7,1.3-1.6,1.9-3,1.9c-0.9,0-1.7-0.3-2.3-0.9c-0.6-0.6-0.9-1.3-0.9-2.2c0-0.9,0.3-1.6,0.9-2.2
			c0.6-0.6,1.4-0.9,2.3-0.9c0.7,0,1.3,0.2,1.8,0.5c0.5,0.4,0.9,0.8,1.2,1.4h-0.8c-0.2-0.4-0.5-0.7-0.9-0.9c-0.4-0.2-0.8-0.3-1.2-0.3
			c-0.7,0-1.3,0.2-1.8,0.7c-0.5,0.5-0.7,1.1-0.7,1.7c0,0.7,0.2,1.3,0.7,1.8c0.5,0.5,1.1,0.7,1.8,0.7c0.5,0,0.9-0.1,1.2-0.3
			c0.4-0.2,0.7-0.5,0.9-0.9H107.2z"/>
		<path class="st3" d="M114.3,29c0,0.9-0.3,1.6-0.9,2.2c-0.6,0.6-1.4,0.9-2.2,0.9c-0.8,0-1.6-0.3-2.2-0.9c-0.6-0.6-0.9-1.3-0.9-2.2
			c0-0.9,0.3-1.6,0.9-2.3c0.6-0.6,1.3-0.9,2.2-0.9c0.9,0,1.6,0.3,2.2,0.9C114,27.4,114.3,28.1,114.3,29z M113.6,28.9
			c0-0.7-0.2-1.2-0.7-1.7c-0.5-0.5-1-0.7-1.7-0.7c-0.7,0-1.2,0.2-1.7,0.7c-0.5,0.5-0.7,1.1-0.7,1.8c0,0.7,0.2,1.2,0.7,1.7
			c0.5,0.5,1,0.7,1.7,0.7c0.7,0,1.2-0.2,1.7-0.7C113.3,30.2,113.6,29.6,113.6,28.9z"/>
		<path class="st3" d="M120.7,32H120v-0.9h0c-0.2,0.4-0.4,0.6-0.8,0.8c-0.3,0.2-0.7,0.3-1.1,0.3c-0.9,0-1.6-0.3-2.1-0.9
			c-0.4-0.4-0.5-1.1-0.5-1.9V26h0.8v3.3c0,1.4,0.6,2.2,1.8,2.2c0.5,0,0.9-0.2,1.3-0.5c0.2-0.2,0.4-0.5,0.5-0.8
			c0.1-0.3,0.1-0.6,0.1-1V26h0.8V32z"/>
		<path class="st3" d="M124.7,26.6c-0.5,0-1,0.2-1.3,0.5c-0.3,0.3-0.5,0.8-0.5,1.3V32h-0.8v-6h0.8v0.9h0c0.2-0.4,0.4-0.6,0.6-0.8
			c0.3-0.1,0.6-0.2,1.1-0.3V26.6z"/>
		<path class="st3" d="M128.8,30.3c0,0.6-0.2,1-0.5,1.3c-0.3,0.3-0.8,0.5-1.4,0.5c-0.5,0-1-0.2-1.3-0.5c-0.3-0.3-0.5-0.8-0.5-1.3
			v-0.1h0.8c0,0.4,0.1,0.7,0.3,0.9c0.2,0.2,0.4,0.3,0.8,0.3c0.3,0,0.6-0.1,0.8-0.3c0.2-0.2,0.3-0.5,0.3-0.8c0-0.3-0.1-0.5-0.3-0.7
			c-0.2-0.2-0.4-0.3-0.7-0.4c-0.3-0.1-0.5-0.2-0.8-0.3c-0.3-0.1-0.5-0.3-0.7-0.5c-0.2-0.2-0.3-0.5-0.3-0.9c0-0.5,0.2-0.9,0.5-1.2
			c0.3-0.3,0.7-0.5,1.2-0.5c0.5,0,0.8,0.2,1.2,0.5c0.3,0.3,0.5,0.7,0.5,1.2h-0.8c0-0.3-0.1-0.5-0.3-0.7c-0.2-0.2-0.4-0.3-0.6-0.3
			c-0.3,0-0.5,0.1-0.6,0.3c-0.2,0.2-0.3,0.4-0.3,0.6c0,0.2,0.1,0.5,0.3,0.6c0.2,0.2,0.4,0.3,0.7,0.4c0.3,0.1,0.5,0.2,0.8,0.3
			c0.3,0.1,0.5,0.3,0.7,0.6C128.7,29.6,128.8,29.9,128.8,30.3z"/>
		<path class="st3" d="M135.7,29c0,0,0,0.1,0,0.1c0,0,0,0.1,0,0.1h-5.5c0,0.6,0.3,1.1,0.7,1.5c0.5,0.4,1,0.6,1.6,0.6
			c0.5,0,0.9-0.1,1.3-0.4c0.4-0.3,0.7-0.6,0.8-1h0.8c-0.2,0.6-0.6,1.1-1.1,1.5c-0.5,0.4-1.1,0.6-1.8,0.6c-0.9,0-1.6-0.3-2.2-0.9
			c-0.6-0.6-0.9-1.4-0.9-2.2c0-0.9,0.3-1.6,0.9-2.2c0.6-0.6,1.3-0.9,2.2-0.9c0.9,0,1.6,0.3,2.2,1C135.4,27.4,135.7,28.2,135.7,29z
			 M134.9,28.6c-0.1-0.6-0.4-1.1-0.8-1.5c-0.4-0.4-0.9-0.6-1.5-0.6c-0.6,0-1.1,0.2-1.5,0.6c-0.4,0.4-0.7,0.9-0.8,1.5H134.9z"/>
		<path class="st3" d="M140.2,30.3c0,0.6-0.2,1-0.5,1.3c-0.3,0.3-0.8,0.5-1.4,0.5c-0.5,0-1-0.2-1.3-0.5c-0.3-0.3-0.5-0.8-0.5-1.3
			v-0.1h0.8c0,0.4,0.1,0.7,0.3,0.9c0.2,0.2,0.4,0.3,0.8,0.3c0.3,0,0.6-0.1,0.8-0.3c0.2-0.2,0.3-0.5,0.3-0.8c0-0.3-0.1-0.5-0.3-0.7
			c-0.2-0.2-0.4-0.3-0.7-0.4c-0.3-0.1-0.5-0.2-0.8-0.3c-0.3-0.1-0.5-0.3-0.7-0.5c-0.2-0.2-0.3-0.5-0.3-0.9c0-0.5,0.2-0.9,0.5-1.2
			c0.3-0.3,0.7-0.5,1.2-0.5c0.5,0,0.8,0.2,1.2,0.5c0.3,0.3,0.5,0.7,0.5,1.2h-0.8c0-0.3-0.1-0.5-0.3-0.7c-0.2-0.2-0.4-0.3-0.6-0.3
			c-0.3,0-0.5,0.1-0.6,0.3c-0.2,0.2-0.3,0.4-0.3,0.6c0,0.2,0.1,0.5,0.3,0.6c0.2,0.2,0.4,0.3,0.7,0.4c0.3,0.1,0.5,0.2,0.8,0.3
			c0.3,0.1,0.5,0.3,0.7,0.6C140.1,29.6,140.2,29.9,140.2,30.3z"/>
	</g>
</g>
</svg>
