
<svg xmlns="http://www.w3.org/2000/svg" version="1.1" xmlns:xlink="http://www.w3.org/1999/xlink" preserveAspectRatio="none" x="0px" y="0px" width="168px" height="164px" viewBox="0 0 168 164">
<defs>
<filter id="Filter_1" x="-20%" y="-20%" width="140%" height="140%" color-interpolation-filters="sRGB">
<feColorMatrix in="SourceGraphic" type="matrix" values="0.69 0 0 0 0.30980392156862746 0 0.69 0 0 0.30980392156862746 0 0 0.69 0 0.30980392156862746 0 0 0 1 0" result="result1"/>
</filter>

<g id="Symbol_4_0_Layer0_0_FILL">
<path fill="#A95E66" stroke="none" d="
M -56.45 19.7
Q -58.15 20.95 -59.9 22.75 -60.9 23.65 -61.35 24.5 -61.8 25.15 -62.2 26.95 -62.5 28.4 -61.25 28.65 -60.05 28.9 -58.9 28.05 -58.1 27.4 -56.7 25.7 -55.3 23.95 -54.4 23.25 -53.55 22.45 -53.2 21.45 -52.85 20.45 -53.25 19.75 -53.65 18.95 -54.6 19 -55.45 19 -56.45 19.7
M -22.55 42.4
Q -25.3 45.95 -25.65 48.8 -25.85 50.3 -24.7 50.9 -23.6 51.45 -22.15 50.8 -20.15 49.8 -17.8 47 -14.85 43.5 -13.9 42.7 -10.55 39.95 -12.15 37.15 -13.75 34.4 -17.1 37.05 -20.3 39.6 -22.55 42.4
M -32.9 18
Q -34.7 18.45 -35.85 19.85 -37.2 21.7 -40.5 25.5 -43.1 28.9 -42.95 31.5 -42.9 32.5 -42 32.9 -41.15 33.35 -40.05 33.05 -38.55 32.7 -37.05 31.45 -36.05 30.6 -34.55 28.8 -32.2 26.15 -30.6 24 -29.35 22.45 -29.2 20.9 -29.05 19.25 -30.1 18.4 -31.1 17.6 -32.9 18
M -1 11.55
Q -0.85 9.9 -1.9 9.05 -2.9 8.25 -4.65 8.65 -6.5 9.05 -7.65 10.5 -8.95 12.3 -12.2 16 -15 19.4 -15.75 21.85 -16.35 23.7 -15.2 24.6 -14.05 25.5 -12.25 24.65 -9.65 23.45 -6.8 20.3 -5.5 18.8 -2.4 14.7 -1.15 13.15 -1 11.55
M -12.7 -4.9
Q -14.3 -4.5 -15.95 -2.9 -17.1 -1.75 -19.4 0.45 -20.6 1.65 -21.05 2.4 -21.55 3.1 -21.85 4.05
L -22.3 5.7
Q -22.5 7 -21.55 7.8 -20.55 8.6 -19.3 8.15 -17.55 7.7 -16.5 6.85 -16 6.55 -15.35 5.8 -14.45 4.85 -14.35 4.75 -12.75 3.2 -11.6 2.05 -10 0.5 -9.45 -1.15 -8.85 -3 -9.9 -4.15 -10.95 -5.35 -12.7 -4.9
M -32.55 -3.4
Q -34.05 -2.95 -35.5 -1.6 -37.95 0.85 -39.1 2.15 -40.6 3.95 -40.9 4.4 -41.85 5.65 -42.2 6.75 -42.6 8 -42.1 9 -41.55 10 -40.35 9.9 -37.8 9.7 -34.95 7.2 -34.65 7 -30.3 2.55 -28.95 1.2 -28.85 -0.55 -28.8 -2.25 -29.8 -3.05 -30.9 -3.9 -32.55 -3.4
M -14.15 -27.5
Q -16.45 -29.3 -19.2 -26.25 -23.4 -21.7 -23.75 -21.25 -26.3 -18.15 -27 -15.65 -27.45 -14.15 -26.45 -13.2 -25.45 -12.25 -24 -13.15 -21.65 -14.65 -18.95 -17.5 -18.2 -18.3 -14.5 -22.6 -11.8 -25.7 -14.15 -27.5
M -44.5 -7
Q -46.05 -8.8 -48.25 -6.8 -53.9 -1.7 -56.65 2.9 -57.8 4.85 -56.55 5.7 -55.3 6.5 -53.6 5.35 -51.55 4.05 -49.1 1.45 -46.4 -1.55 -45 -3 -42.95 -5.2 -44.5 -7
M -42.4 -25.25
Q -41.25 -26.35 -41.15 -27.95 -41.1 -29.45 -42 -30.05 -42.95 -30.8 -44.35 -30.35 -45.6 -29.95 -46.9 -28.7 -51.1 -24.75 -52.3 -23.35 -55.25 -19.95 -55.5 -17.15 -55.65 -16 -54.75 -15.55 -53.9 -15.1 -52.75 -15.65 -51.55 -16.25 -50 -17.65 -49.85 -17.75 -47.45 -20.1 -46.55 -20.9 -44.9 -22.65 -43.25 -24.4 -42.4 -25.25
M -13.65 -52.9
Q -14.9 -55.1 -17.6 -52.95 -23.15 -48.6 -24.8 -44.2 -25.4 -42.5 -24.15 -42 -23 -41.5 -21.6 -42.4 -20.15 -43.35 -18.2 -45.35 -15.75 -47.9 -15.05 -48.5 -12.4 -50.7 -13.65 -52.9
M 30.35 46.25
Q 34.6 41.3 36.25 39.55 37.6 38.2 37.7 36.45 37.8 34.75 36.75 33.95 35.65 33.05 34 33.55 32.45 34 31.05 35.4 29.5 36.95 25.65 41.35 23.25 44.1 22.95 44.45 21.7 46.2 21.55 47.9 21.45 48.95 22.05 49.65 22.65 50.35 23.65 50.35 26.45 50.4 30.35 46.25
M 3.35 44.6
Q 1.85 45 0.4 46.45 -3.75 50.6 -4.55 53.9 -5 55.75 -3.95 56.7 -2.85 57.75 -1 56.75 1 55.8 2.9 53.65
L 5.6 50.6
Q 6.9 49.3 7.05 47.45 7.2 45.7 6.1 44.95 4.9 44.15 3.35 44.6
M 23.8 14.75
Q 22.35 15.2 20.85 16.55 17.1 20.05 15.25 22.05 11.95 25.65 11.75 28.25 11.65 29.6 12.5 30.35 13.4 31.15 14.75 30.7 16.4 30.2 18.05 28.75 18.4 28.45 20.85 25.85 24.35 22.35 26.1 20.7 27.45 19.4 27.5 17.55 27.6 15.8 26.6 15.05 25.45 14.25 23.8 14.75
M 60.85 9.35
Q 62.2 8 62.3 6.2 62.35 4.5 61.35 3.7 60.2 2.9 58.55 3.4 57.1 3.85 55.6 5.2 51.4 9.4 51.25 9.6 48.7 12.4 48.2 14.55 47.8 16.1 48.55 17.2 49.35 18.4 50.95 17.85 52.55 17.35 53.95 16.25 54.95 15.45 56.55 13.75 60.1 10.1 60.85 9.35
M 45.6 -0.35
Q 47.45 -2.4 50.5 -6.45 53.55 -9.85 50.95 -11.95 48.35 -14 45.3 -10.6 44.4 -9.6 43.2 -8.05 41.25 -5.5 41.15 -5.4 39.25 -3 38.9 -2.5 37.8 -0.85 37.6 0.6 37.4 1.65 38.05 2.3 38.65 2.95 39.65 3.05 42.35 3.3 45.6 -0.35
M 16.15 -5.2
Q 14.6 -4.7 13.2 -3.3 10.25 -0.25 9.6 0.5 7.55 2.9 7 4.8 6.65 6 7.1 6.95 7.6 7.95 8.7 7.75 11.2 7.55 13.95 5.3 14.75 4.65 18.45 0.85 19.8 -0.5 19.9 -2.3 19.95 -4 18.95 -4.8 17.85 -5.7 16.15 -5.2
M 12.7 -15.9
Q 14.1 -17.4 16.65 -20.5 18.4 -22.25 16.95 -23.4 15.55 -24.55 13.8 -22.8 11.3 -20.6 10.1 -19.4 8.55 -18 8.1 -17.55 7.1 -16.45 6.8 -15.35 6.55 -14.45 6.9 -13.75 7.25 -13.05 8.1 -13.05 10.15 -13.15 12.7 -15.9
M 5.15 -33.6
Q 3.6 -33.15 2.15 -31.75 -1.5 -27.85 -2.55 -26.45 -4.25 -24.3 -4.85 -23.3 -6 -21.45 -6 -20 -6.05 -18.4 -5 -17.85 -4 -17.3 -2.3 -17.95 -1 -18.5 0.5 -20 1 -20.55 2.85 -22.7 5.85 -26 7.4 -27.6 8.65 -28.95 8.8 -30.7 8.9 -32.45 7.9 -33.2 6.85 -34.1 5.15 -33.6
M 39.6 -29.2
Q 38.15 -28.75 36.65 -27.4 33.2 -24.45 31.5 -22.9 28.35 -20.15 27.5 -17.85 27 -16.5 27.65 -15.5 28.2 -14.5 29.4 -14.5 32.1 -14.45 36.05 -17.65 37.65 -19 41.9 -23.25 43.25 -24.6 43.35 -26.35 43.4 -28.05 42.4 -28.85 41.25 -29.7 39.6 -29.2
M 23.8 -44.5
Q 21.5 -42 20.65 -39.75 19.9 -37.85 21.2 -36.9 22.45 -36 24.25 -36.85 27.85 -38.55 33.05 -44.6 36.15 -47.95 33.5 -50.05 30.9 -52.1 27.8 -48.75 25.05 -45.9 23.8 -44.5
M 38.05 -43.45
Q 34.95 -40.65 34.2 -39.85 32.15 -37.7 31.15 -35.7 30.15 -33.7 31.2 -32.3 32.25 -30.85 34.4 -32 37.05 -33.4 41.5 -37.5 43.05 -38.9 43.6 -40.45 44.2 -42.15 43.45 -43.4 42.85 -44.55 41.2 -44.6 39.5 -44.7 38.05 -43.45
M 12.25 -55.65
Q 10.55 -58.6 7 -55.85 -4.85 -46.85 -2.3 -42.6 -1.4 -41.2 0.7 -41.8 1.65 -42.15 2.65 -43.05 3.1 -43.4 4.45 -44.75 7.85 -48.15 10.4 -50 13.95 -52.75 12.25 -55.65 Z"/>
</g>
</defs>

<g transform="matrix( 1, 0, 0, 1, 84.55,80.1) ">
<g transform="matrix( 1, 0, 0, 1, 0,0) ">
<use filter="url(#Filter_1)" xlink:href="#Symbol_4_0_Layer0_0_FILL"/>
</g>
</g>
</svg>
