<svg id="Layer_1" data-name="Layer 1" xmlns="http://www.w3.org/2000/svg" viewBox="0 0 135 135"><defs><style>.cls-1{fill:#ffe7ea;}</style></defs><path class="cls-1" d="M11.35,44.09C7.54,41.79.82,43.19.42,48.18a1.27,1.27,0,0,0,.1.6,8.39,8.39,0,0,0,3.31,9.5c3.71,2.5,8,.7,10.12-2.9A8.32,8.32,0,0,0,11.35,44.09ZM9.54,53.28a2.5,2.5,0,0,1-3.81,1.1,4.09,4.09,0,0,1-1.8-4.6c1.4-.7,2.7-1.8,4.41-1.1A3.22,3.22,0,0,1,9.54,53.28Z"/><path class="cls-1" d="M49.85,39.59a8.83,8.83,0,0,0-6.42-6,8.33,8.33,0,0,0-8,3.5,1.33,1.33,0,0,0-.3.8c-4.11,5-.2,15,7.12,13.79A9.6,9.6,0,0,0,49.85,39.59Zm-9.53,7.69c-1.9-.1-3.4-1.9-4-3.59a4.52,4.52,0,0,1,.2-4.1,2.86,2.86,0,0,0,.91.1c1.5-.3,3.21-1.4,4.71-1.2s2.81,2.1,3,3.6A5,5,0,0,1,40.32,47.28Z"/><path class="cls-1" d="M36.41,67.27A7.42,7.42,0,0,0,23.78,66a1.53,1.53,0,0,0-.2,1.3c-5.21,5.5.3,16.59,8.32,12.89A10,10,0,0,0,36.41,67.27ZM29,76.17c-1.8.79-3.61-.3-4.61-1.7a5,5,0,0,1,.2-6,1.27,1.27,0,0,0,.6.1c2.61-.1,4.92-1.5,6.22,1.5A4.46,4.46,0,0,1,29,76.17Z"/><path class="cls-1" d="M70.51,64.27a8.36,8.36,0,0,0-15.15-1.4,1.91,1.91,0,0,0,0,1.8,10.35,10.35,0,0,0-.3,6.5C56,75,59.38,78,63.49,76.86,68.6,75.37,72.31,69.27,70.51,64.27ZM61,72.07c-1.7.1-2.81-1.9-3.31-3.3a8.4,8.4,0,0,1-.5-3.1h.4c2.51-.6,6.92-3.2,7.72,1.2C65.69,69.07,63.29,72.07,61,72.07Z"/><path class="cls-1" d="M88.25,33.79c-1.5-4.5-6.72-6.19-11-4.89a.93.93,0,0,0-1.3,0,5.09,5.09,0,0,0-.7.79,1.27,1.27,0,0,0-.7,1.1c-2.91,5.2-2.21,14.39,5.41,13.9C85.35,44.39,90.06,39.19,88.25,33.79Zm-9.62,5.8c-1.41-.3-2.21-2-2.51-3.2a7.72,7.72,0,0,1,0-3.7c2.31.5,5.62.2,6.62,2.7C83.64,37.59,80.83,40,78.63,39.59Z"/><path class="cls-1" d="M112.26,59c-1.35-4.12-5.69-5.46-9.61-4.12a1.71,1.71,0,0,0-1.25,1.54,7.52,7.52,0,0,0-3.3,9.69,7,7,0,0,0,11.06,2.68A9,9,0,0,0,112.26,59Zm-6.51,4.84a2.17,2.17,0,0,1-1.14.93c.21-.1-.52.1-.52.1a1.9,1.9,0,0,1-1-.2c-1.14-.62-1.76-2.48-1.86-3.71a4,4,0,0,1,1-3.09c.21.1.52.2.83.31a5.81,5.81,0,0,1,2.69.82,1.74,1.74,0,0,1,.72,1.24A5.29,5.29,0,0,1,105.75,63.88Z"/><path class="cls-1" d="M130.14,25c-2.89-4.85-8.68-5.36-13.44-3-1.75.93-.82,3.4.93,3.5,2.38.11,5.79.11,6.83,2.58a4.66,4.66,0,0,1-2.69,6.39c-5.17,2.06-10.13-4.12-7.24-8.66.73-1.23-1.13-2.26-2-1.13-2.48,3.71-2.79,8.14.1,11.74a10.28,10.28,0,0,0,12.61,2.89A10.07,10.07,0,0,0,130.14,25Z"/><path class="cls-1" d="M45.06,89.74a1.78,1.78,0,0,0-1.55,1.65.8.8,0,0,0-.82.11,9.36,9.36,0,0,0-5.17,9.27c.2,3.91,2.79,7.73,7.23,7.62a9.65,9.65,0,0,0,9-9.48C53.85,94.38,50.13,89.43,45.06,89.74Zm-.62,13.91c-2,.11-2.89-2.06-3.2-3.71-.41-2.37.41-5.15,2.69-6.28a1,1,0,0,0,.62-.93,9.88,9.88,0,0,1,3.82,6.08A4.28,4.28,0,0,1,44.44,103.65Z"/><path class="cls-1" d="M81.74,87.46a1.47,1.47,0,0,0-1.11,1.4c-5.41,3.2-5.41,13.29,1.41,14.89,4.81,1.1,9.62-3.6,9.62-8.2S86.35,86.26,81.74,87.46Zm.7,11.09c-2.91-1-3.11-6.29-.91-8.09,1.81,1.3,4.42,2.89,4.32,5.39C85.85,97.25,84,99.05,82.44,98.55Z"/><path class="cls-1" d="M8,95.65c-3.21-.5-5.12,2-5.82,4.8-.9,3.5-.4,7.9,2.61,10.39,4.61,3.8,10.53.5,12.23-4.49C19.07,100.85,14.25,94.35,8,95.65Zm4.41,10c-1.1,2.39-3.81,3.29-5.82,1.3a7.8,7.8,0,0,1-2-5.8c0-1.3.5-3.1,1.6-3.8a1.21,1.21,0,0,0,.71,1.2C9.94,99.85,14.15,101.85,12.45,105.65Z"/><path class="cls-1" d="M132.93,84.08c-1.44-2.27-4.34-4.74-7.13-4.33a1.51,1.51,0,0,0-1.14.93c-.2,0-.31-.11-.51,0-6.62,1.44-11.06,12.16-4.14,16.07,4.65,2.68,11-.1,13.34-4.53A8.48,8.48,0,0,0,132.93,84.08Zm-5.47,5.56c-.93,1.65-3.93,3.3-5.69,2-3.1-2.37-.21-7.83,2.89-8.66C125.59,85.11,128.8,87.17,127.46,89.64Z"/><path class="cls-1" d="M41.63,123.64c-1.61-5.8-7.72-5.2-11.83-2.6a.94.94,0,0,0-1.31-.1c-3.11,2.3-4,5.69-2.3,9.09,1.6,3.2,5.21,5.6,8.82,4.8C39.72,133.83,42.83,128.13,41.63,123.64Zm-7.92,7.49c-3.61.5-6.82-4-5.22-7a1.18,1.18,0,0,0,.81.29c2.4-.1,7.41-2.89,8.12,1C37.92,127.53,36.11,130.83,33.71,131.13Z"/><path class="cls-1" d="M75.56,122.72c-1.24-3.71-5.89-5.16-9.41-4.54-.41.11-.72.21-.82.41a1.37,1.37,0,0,0-2-.51c-3.41,2.68-6,6.28-3.93,10.71,1.86,3.82,6.31,5.16,10.24,3.71C73.39,131,77,126.94,75.56,122.72ZM67.81,128a4.34,4.34,0,0,1-5.07-1.24c-2.07-2.57.1-5.35,2.17-7.11a1.86,1.86,0,0,0,1.14,1.45c1.45.61,3.82,1.23,4.55,2.78C71.53,125.7,69.25,127.46,67.81,128Z"/><path class="cls-1" d="M117,118.7c-1.34-4.23-7-6.8-11-4.43a1.71,1.71,0,0,0-1.86.62,12.5,12.5,0,0,0-1.87,10.3c1,3.81,4.66,6.18,8.58,4.64C115.26,128.18,118.56,123.44,117,118.7Zm-9,6h-.21c-.1-.1-.31-.2-.41-.31a4.33,4.33,0,0,1-1-2,7.37,7.37,0,0,1-.11-4.23c1.76.62,3.93.72,4.76,2.58C112.05,122.61,109.57,124.16,108,124.67Z"/><path class="cls-1" d="M66.19,11.91c-1.1-4-6.51-8.2-10.62-5.5a2.49,2.49,0,0,0-.61.5,1.46,1.46,0,0,0-2.1.1A9.86,9.86,0,0,0,50,17.7a7.72,7.72,0,0,0,10.13,4.6C64.39,20.8,67.5,16.6,66.19,11.91ZM58.07,17c-4.81,1.5-5.61-4.89-3-7.59.1.2.3.3.51.5,1.8,1,4,1.2,4.91,3.2S59.88,16.5,58.07,17Z"/><path class="cls-1" d="M105.8,6.31a10.24,10.24,0,0,0-11-6.2,1.32,1.32,0,0,0-.9,1.9c-3.21,2.2-5.32,5.6-4.51,9.8a8.23,8.23,0,0,0,10.82,6.49C105,16.5,107.71,11,105.8,6.31Zm-6.92,6.8c-2.51,1.19-4.71-.7-5.51-3-.91-2.7.6-5.1,2.6-6.7a9.31,9.31,0,0,1,4.42,3.4C101.59,9,101.39,11.81,98.88,13.11Z"/></svg>