<?xml version="1.0" encoding="utf-8"?>
<!-- Generator: Adobe Illustrator 24.1.2, SVG Export Plug-In . SVG Version: 6.00 Build 0)  -->
<svg version="1.1" id="Layer_1" xmlns="http://www.w3.org/2000/svg" xmlns:xlink="http://www.w3.org/1999/xlink" x="0px" y="0px"
	 viewBox="0 0 135 135" style="enable-background:new 0 0 135 135;" xml:space="preserve">
<style type="text/css">
	.st0{fill:#FFE7EA;}
</style>
<path class="st0" d="M11.3,44.1c-3.8-2.3-10.5-0.9-10.9,4.1c0,0.2,0,0.4,0.1,0.6c-1.1,3.5,0.2,7.5,3.3,9.5c3.7,2.5,8,0.7,10.1-2.9
	C16.2,51.6,15.3,46.6,11.3,44.1z M9.5,53.3c-0.8,1.6-2.3,2-3.8,1.1c-1.7-1.1-2.2-2.8-1.8-4.6c1.4-0.7,2.7-1.8,4.4-1.1
	C10.1,49.6,10.4,51.7,9.5,53.3z"/>
<path class="st0" d="M49.8,39.6c-1-2.9-3.3-5.4-6.4-6c-3-0.5-6.4,1-8,3.5c-0.2,0.3-0.3,0.5-0.3,0.8c-4.1,5-0.2,15,7.1,13.8
	C47.7,50.9,51.6,44.9,49.8,39.6z M40.3,47.3c-1.9-0.1-3.4-1.9-4-3.6c-0.6-1.5-0.5-2.9,0.2-4.1c0.3,0.1,0.6,0.1,0.9,0.1
	c1.5-0.3,3.2-1.4,4.7-1.2c1.6,0.2,2.8,2.1,3,3.6C45.4,44.6,42.9,47.4,40.3,47.3z"/>
<path class="st0" d="M36.4,67.3c-2.4-4.9-9.2-5.9-12.6-1.3c-0.3,0.4-0.3,0.9-0.2,1.3c-5.2,5.5,0.3,16.6,8.3,12.9
	C36.5,77.9,38.6,71.8,36.4,67.3z M29,76.2c-1.8,0.8-3.6-0.3-4.6-1.7c-1.3-1.9-1.2-4.2,0.2-6c0.2,0.1,0.4,0.1,0.6,0.1
	c2.6-0.1,4.9-1.5,6.2,1.5C32.6,72.4,31.4,75.2,29,76.2z"/>
<path class="st0" d="M70.5,64.3c-2.3-6.7-11.6-7.7-15.1-1.4c-0.3,0.6-0.3,1.3,0,1.8c-0.8,2.1-0.9,4.4-0.3,6.5
	c0.9,3.8,4.3,6.8,8.4,5.7C68.6,75.4,72.3,69.3,70.5,64.3z M61,72.1c-1.7,0.1-2.8-1.9-3.3-3.3c-0.4-1-0.5-2.1-0.5-3.1
	c0.1,0,0.2,0,0.4,0c2.5-0.6,6.9-3.2,7.7,1.2C65.7,69.1,63.3,72.1,61,72.1z"/>
<path class="st0" d="M88.3,33.8c-1.5-4.5-6.7-6.2-11-4.9c-0.3-0.3-0.8-0.4-1.3,0c-0.2,0.2-0.5,0.5-0.7,0.8c-0.5,0.3-0.7,0.7-0.7,1.1
	c-2.9,5.2-2.2,14.4,5.4,13.9C85.3,44.4,90.1,39.2,88.3,33.8z M78.6,39.6c-1.4-0.3-2.2-2-2.5-3.2c-0.3-1.2-0.3-2.5,0-3.7
	c2.3,0.5,5.6,0.2,6.6,2.7C83.6,37.6,80.8,40,78.6,39.6z"/>
<path class="st0" d="M112.3,59c-1.3-4.1-5.7-5.5-9.6-4.1c-0.8,0.3-1.2,0.9-1.2,1.5c-3.3,2-5,5.7-3.3,9.7c1.9,4.5,7.2,5.8,11.1,2.7
	C112.1,66.6,113.5,62.5,112.3,59z M105.7,63.9c-0.2,0.3-0.5,0.7-1.1,0.9c0.2-0.1-0.5,0.1-0.5,0.1c-0.4,0-0.6,0-1-0.2
	c-1.1-0.6-1.8-2.5-1.9-3.7c-0.1-1.2,0.3-2.3,1-3.1c0.2,0.1,0.5,0.2,0.8,0.3c0.9,0.1,2,0.3,2.7,0.8c0.5,0.4,0.6,0.7,0.7,1.2
	C106.7,61.2,106.5,62.7,105.7,63.9z"/>
<path class="st0" d="M130.1,25c-2.9-4.8-8.7-5.4-13.4-3c-1.8,0.9-0.8,3.4,0.9,3.5c2.4,0.1,5.8,0.1,6.8,2.6c1.1,2.6,0,5.4-2.7,6.4
	c-5.2,2.1-10.1-4.1-7.2-8.7c0.7-1.2-1.1-2.3-2-1.1c-2.5,3.7-2.8,8.1,0.1,11.7c3.1,3.8,8.3,5,12.6,2.9
	C130.9,36.9,133.2,30.3,130.1,25z"/>
<path class="st0" d="M45.1,89.7c-0.8,0.1-1.6,0.8-1.6,1.6c-0.3-0.1-0.5-0.1-0.8,0.1c-3.6,1.6-5.4,5.5-5.2,9.3
	c0.2,3.9,2.8,7.7,7.2,7.6c5.1-0.2,8.9-4.6,9-9.5C53.9,94.4,50.1,89.4,45.1,89.7z M44.4,103.7c-2,0.1-2.9-2.1-3.2-3.7
	c-0.4-2.4,0.4-5.2,2.7-6.3c0.4-0.2,0.6-0.5,0.6-0.9c1.9,1.5,3.5,3.6,3.8,6.1C48.7,101.2,46.9,103.6,44.4,103.7z"/>
<path class="st0" d="M81.7,87.5c-0.7,0.2-1.1,0.8-1.1,1.4c-5.4,3.2-5.4,13.3,1.4,14.9c4.8,1.1,9.6-3.6,9.6-8.2
	C91.7,91,86.3,86.3,81.7,87.5z M82.4,98.6c-2.9-1-3.1-6.3-0.9-8.1c1.8,1.3,4.4,2.9,4.3,5.4C85.8,97.3,84,99.1,82.4,98.6z"/>
<path class="st0" d="M8,95.7c-3.2-0.5-5.1,2-5.8,4.8c-0.9,3.5-0.4,7.9,2.6,10.4c4.6,3.8,10.5,0.5,12.2-4.5
	C19.1,100.8,14.3,94.4,8,95.7z M12.4,105.6c-1.1,2.4-3.8,3.3-5.8,1.3c-1.5-1.5-2.1-3.8-2-5.8c0-1.3,0.5-3.1,1.6-3.8
	c0,0.5,0.2,1,0.7,1.2C9.9,99.9,14.2,101.8,12.4,105.6z"/>
<path class="st0" d="M132.9,84.1c-1.4-2.3-4.3-4.7-7.1-4.3c-0.6,0.1-0.9,0.5-1.1,0.9c-0.2,0-0.3-0.1-0.5,0
	c-6.6,1.4-11.1,12.2-4.1,16.1c4.7,2.7,11-0.1,13.3-4.5C134.6,89.7,134.5,86.7,132.9,84.1z M127.5,89.6c-0.9,1.6-3.9,3.3-5.7,2
	c-3.1-2.4-0.2-7.8,2.9-8.7C125.6,85.1,128.8,87.2,127.5,89.6z"/>
<path class="st0" d="M41.6,123.6c-1.6-5.8-7.7-5.2-11.8-2.6c-0.3-0.3-0.8-0.5-1.3-0.1c-3.1,2.3-4,5.7-2.3,9.1
	c1.6,3.2,5.2,5.6,8.8,4.8C39.7,133.8,42.8,128.1,41.6,123.6z M33.7,131.1c-3.6,0.5-6.8-4-5.2-7c0.2,0.2,0.5,0.3,0.8,0.3
	c2.4-0.1,7.4-2.9,8.1,1C37.9,127.5,36.1,130.8,33.7,131.1z"/>
<path class="st0" d="M75.6,122.7c-1.2-3.7-5.9-5.2-9.4-4.5c-0.4,0.1-0.7,0.2-0.8,0.4c-0.3-0.6-1.2-1-2-0.5c-3.4,2.7-6,6.3-3.9,10.7
	c1.9,3.8,6.3,5.2,10.2,3.7C73.4,131,77,126.9,75.6,122.7z M67.8,128c-1.8,0.7-3.8,0.3-5.1-1.2c-2.1-2.6,0.1-5.4,2.2-7.1
	c0.1,0.6,0.5,1.2,1.1,1.4c1.4,0.6,3.8,1.2,4.5,2.8C71.5,125.7,69.3,127.5,67.8,128z"/>
<path class="st0" d="M117,118.7c-1.3-4.2-7-6.8-11-4.4c-0.6-0.2-1.3,0-1.9,0.6c-2.1,2.8-2.8,6.9-1.9,10.3c1,3.8,4.7,6.2,8.6,4.6
	C115.3,128.2,118.6,123.4,117,118.7z M108,124.7c-0.1,0-0.2,0-0.2,0c-0.1-0.1-0.3-0.2-0.4-0.3c-0.5-0.5-0.8-1.2-1-2
	c-0.4-1.4-0.5-2.9-0.1-4.2c1.8,0.6,3.9,0.7,4.8,2.6C112.1,122.6,109.6,124.2,108,124.7z"/>
<path class="st0" d="M66.2,11.9c-1.1-4-6.5-8.2-10.6-5.5c-0.2,0.1-0.4,0.3-0.6,0.5c-0.6-0.5-1.4-0.6-2.1,0.1
	c-3,2.7-4.3,6.9-2.9,10.7c1.5,4.2,5.9,6.1,10.1,4.6C64.4,20.8,67.5,16.6,66.2,11.9z M58.1,17c-4.8,1.5-5.6-4.9-3-7.6
	c0.1,0.2,0.3,0.3,0.5,0.5c1.8,1,4,1.2,4.9,3.2C61.4,15,59.9,16.5,58.1,17z"/>
<path class="st0" d="M105.8,6.3c-1.7-4.3-6.3-6.9-11-6.2c-0.9,0.1-1.2,1.1-0.9,1.9c-3.2,2.2-5.3,5.6-4.5,9.8c0.9,5,5.8,8.2,10.8,6.5
	C105,16.5,107.7,11,105.8,6.3z M98.9,13.1c-2.5,1.2-4.7-0.7-5.5-3C92.5,7.4,94,5,96,3.4c1.7,0.8,3.4,1.7,4.4,3.4
	C101.6,9,101.4,11.8,98.9,13.1z"/>
</svg>
