<svg id="a" xmlns="http://www.w3.org/2000/svg" viewBox="0 0 2000 2000"><defs><style>.cls-1{fill:#a30a1b;}</style></defs><path class="cls-1" d="M721.71,1245.44H557.8V1021.69H721.71v223.75Zm-133.65-30.25h103.4V1052H588.06Z"/><rect class="cls-1" x="572.93" y="1118.44" width="133.65" height="30.25"/><rect class="cls-1" x="592.53" y="1092.47" width="126.29" height="7.57" transform="translate(-522.09 601.74) rotate(-36.34)"/><rect class="cls-1" x="592.52" y="1189.22" width="126.29" height="7.57" transform="translate(-579.43 620.55) rotate(-36.34)"/><path class="cls-1" d="M508.62,1245.44H344.71V1021.69H508.62ZM375,1215.19h103.4V1052H375Z"/><rect class="cls-1" x="359.84" y="1118.44" width="133.65" height="30.25"/><rect class="cls-1" x="379.43" y="1092.45" width="126.29" height="7.57" transform="translate(-563.53 475.46) rotate(-36.34)"/><rect class="cls-1" x="379.42" y="1189.2" width="126.29" height="7.57" transform="translate(-620.86 494.27) rotate(-36.34)"/><path class="cls-1" d="M721.71,1588.05H557.8V1364.3H721.71v223.75ZM588.06,1557.8h103.4V1394.56H588.06Z"/><rect class="cls-1" x="572.93" y="1461.05" width="133.65" height="30.25"/><rect class="cls-1" x="592.51" y="1435.08" width="126.29" height="7.57" transform="translate(-725.12 668.36) rotate(-36.34)"/><rect class="cls-1" x="592.51" y="1531.83" width="126.29" height="7.57" transform="translate(-782.45 687.18) rotate(-36.34)"/><path class="cls-1" d="M508.62,1588.05H344.71V1364.3H508.62ZM375,1557.8h103.4V1394.56H375Z"/><rect class="cls-1" x="359.84" y="1461.05" width="133.65" height="30.25"/><rect class="cls-1" x="379.41" y="1435.08" width="126.29" height="7.57" transform="translate(-766.56 542.09) rotate(-36.34)"/><rect class="cls-1" x="379.4" y="1531.83" width="126.29" height="7.57" transform="translate(-823.9 560.9) rotate(-36.34)"/><path class="cls-1" d="M1655.29,1245.44h-163.9V1021.69h163.9Zm-133.65-30.25H1625V1052H1521.64Z"/><rect class="cls-1" x="1506.52" y="1118.44" width="133.65" height="30.25"/><rect class="cls-1" x="1526.16" y="1092.51" width="126.29" height="7.57" transform="translate(-340.54 1155) rotate(-36.34)"/><rect class="cls-1" x="1526.15" y="1189.27" width="126.29" height="7.57" transform="translate(-397.88 1173.81) rotate(-36.34)"/><path class="cls-1" d="M1442.2,1245.44H1278.29V1021.69H1442.2Zm-133.65-30.25H1412V1052h-103.4Z"/><rect class="cls-1" x="1293.42" y="1118.44" width="133.65" height="30.25"/><rect class="cls-1" x="1313.05" y="1092.5" width="126.29" height="7.57" transform="translate(-381.98 1028.71) rotate(-36.34)"/><rect class="cls-1" x="1313.04" y="1189.26" width="126.29" height="7.57" transform="translate(-439.32 1047.52) rotate(-36.34)"/><path class="cls-1" d="M1082,1245.44H918.05V1021.69H1082ZM948.3,1215.19h103.39V1052H948.3Z"/><rect class="cls-1" x="933.18" y="1118.44" width="133.65" height="30.25"/><rect class="cls-1" x="952.79" y="1092.48" width="126.29" height="7.57" transform="translate(-452.04 815.23) rotate(-36.34)"/><rect class="cls-1" x="952.78" y="1189.24" width="126.29" height="7.57" transform="translate(-509.37 834.04) rotate(-36.34)"/><path class="cls-1" d="M1655.29,1588.05h-163.9V1364.3h163.9Zm-133.65-30.25H1625V1394.56H1521.64Z"/><rect class="cls-1" x="1506.52" y="1461.05" width="133.65" height="30.25"/><rect class="cls-1" x="1526.14" y="1435.14" width="126.29" height="7.57" transform="translate(-543.58 1221.62) rotate(-36.34)"/><rect class="cls-1" x="1526.13" y="1531.9" width="126.28" height="7.57" transform="translate(-600.92 1240.43) rotate(-36.34)"/><path class="cls-1" d="M801.15,1691.29H256.61V872.6H801.15ZM286.86,1661h484V902.85h-484V1661Z"/><path class="cls-1" d="M1743.39,1691.29H1198.85V872.6h544.54v818.69ZM1229.1,1661h484V902.85h-484V1661Z"/><path class="cls-1" d="M1229.1,1691.29H770.89V719.19l229.1-197,229.1,197v972.1ZM801.15,1661h397.7v-928L1000,562.06l-198.85,171v928Z"/><path class="cls-1" d="M801.15,902.85H127.69L353,645.16H903.35l-102.2,87.91V902.85ZM194.32,872.6H770.9V719.19l50.89-43.77H366.72L194.32,872.6Z"/><path class="cls-1" d="M1872.31,902.85H1198.84V733.07l-102.2-87.91H1647L1872.3,902.85ZM1229.1,872.6h576.57L1633.28,675.42H1178.21l50.89,43.77V872.6Z"/><rect class="cls-1" x="984.87" y="308.71" width="30.25" height="233.39"/><path class="cls-1" d="M1222.65,490.91H984.87V339h237.78l-65.39,76Zm-207.53-30.25h141.57L1117.35,415l39.34-45.71H1015.12v91.43Z"/><path class="cls-1" d="M1135,1624H865V1300.46h270ZM895.27,1593.7h209.45v-263H895.27Z"/><rect class="cls-1" x="984.87" y="1315.59" width="30.25" height="293.24"/><path class="cls-1" d="M1171.88,1691.29H828.11v-97.58h343.77ZM858.37,1661h283.26V1624H858.37Z"/><path class="cls-1" d="M1000,947.49c-74.43,0-135-60.55-135-135s60.55-135,135-135,135,60.55,135,135S1074.43,947.49,1000,947.49Zm0-239.71a104.73,104.73,0,1,0,104.73,104.73A104.85,104.85,0,0,0,1000,707.78Z"/><rect class="cls-1" x="1042.5" y="883.26" width="7.56" height="18.88" transform="translate(-306.18 642.74) rotate(-30)"/><rect class="cls-1" x="1076.39" y="849.35" width="7.56" height="18.88" transform="translate(-203.65 1364.85) rotate(-60)"/><rect class="cls-1" x="1083.14" y="808.73" width="18.88" height="7.56"/><rect class="cls-1" x="1070.72" y="762.55" width="18.88" height="7.56" transform="translate(-238.43 642.52) rotate(-29.99)"/><rect class="cls-1" x="1036.8" y="728.46" width="18.88" height="7.56" transform="translate(-110.93 1272.39) rotate(-60.01)"/><rect class="cls-1" x="996.22" y="710.49" width="7.56" height="18.88"/><rect class="cls-1" x="949.93" y="722.92" width="7.56" height="18.88" transform="translate(-238.41 574.97) rotate(-30)"/><rect class="cls-1" x="916.04" y="756.77" width="7.56" height="18.88" transform="translate(-203.65 1179.69) rotate(-60)"/><rect class="cls-1" x="897.98" y="808.73" width="18.88" height="7.56"/><rect class="cls-1" x="910.36" y="855.11" width="18.88" height="7.56" transform="translate(-306.17 574.76) rotate(-29.99)"/><rect class="cls-1" x="944.24" y="888.8" width="18.88" height="7.56" transform="translate(-296.09 1272.42) rotate(-60.01)"/><rect class="cls-1" x="996.22" y="895.64" width="7.56" height="18.88"/><rect class="cls-1" x="1013.94" y="1453.23" width="11.35" height="34.41"/><rect class="cls-1" x="974.71" y="1453.23" width="11.35" height="34.41"/><path class="cls-1" d="M1442.2,1588.05H1278.29V1364.3H1442.2Zm-133.65-30.25H1412V1394.56h-103.4Z"/><rect class="cls-1" x="1293.42" y="1461.05" width="133.65" height="30.25"/><rect class="cls-1" x="1313.03" y="1435.13" width="126.29" height="7.57" transform="translate(-585.02 1095.34) rotate(-36.34)"/><rect class="cls-1" x="1313.03" y="1531.89" width="126.28" height="7.57" transform="translate(-642.36 1114.15) rotate(-36.34)"/><rect class="cls-1" x="1000" y="411.16" width="137.31" height="7.56"/><polygon class="cls-1" points="981.05 860.46 967.94 852.9 992.44 810.48 992.44 735.6 1007.56 735.6 1007.56 814.54 981.05 860.46"/></svg>